<svg xmlns="http://www.w3.org/2000/svg" viewBox="0 0 992.05 1698.22">

  <path style="fill:#919191;" d="M536.51,936.3a41.77,41.77,0,0,1-20.73,36.1,41,41,0,0,1-4.64,2.33,41.89,41.89,0,0,1-25.49,2.34l13.8-15.26,1.15-1.27a2.47,2.47,0,0,0,.63-1.81c.65-.06,1.29-.16,1.93-.28,10.72-2,20-11.18,20-22.15,0-2.24-2.54-6-2.12-8.09.85-4.28,12.64-14.7,12.64-14.7,1.55,2.85-1.45,9.07-.59,12.27C534,929.25,536.51,932.54,536.51,936.3Z"/>
  <path style="fill:#919191;" d="M513.17,893.88v2.25a6.93,6.93,0,0,1-.32,2.1h0l0,.11a7.11,7.11,0,0,1-.94,1.89h0l-1.22,1.34-11.08,12.16-.83,0a22.57,22.57,0,0,0-3.16,44.91,18.08,18.08,0,0,0,2.08.2l1.08,0a23.09,23.09,0,0,0,2.49-.14,2.47,2.47,0,0,1-.63,1.81l-1.15,1.27-13.8,15.26a39.94,39.94,0,0,1-5.34-1.55,41.8,41.8,0,0,1-1.81-77.72,6.53,6.53,0,0,1-.21-1.67v-2.25a7.2,7.2,0,0,1,7.2-7.21H506A7.2,7.2,0,0,1,513.17,893.88Z"/>
  <path style="fill:#919191;" d="M513.15,897.91a6.46,6.46,0,0,1-1.22,1.34Z"/>
  <polygon style="fill:#213440;" points="529.75 876.7 519.75 890.34 469.73 890.34 459.73 876.7 460.72 866.41 461.72 856.09 462.51 847.88 463.57 836.93 464.36 828.78 465.42 817.79 466.21 809.64 467.27 798.65 469.73 773.16 519.75 773.16 520.39 779.77 521.38 790.03 522.11 797.64 523.11 807.89 523.86 815.67 524.83 825.77 525.66 834.34 526.55 843.61 529.75 876.7"/>
  <rect style="fill:#9e9d9e;" x="20.17" y="1584.74" width="951.72" height="99.03"/>
  <rect style="fill:A8A8A8" y="1683.77" width="992.05" height="11.95"/>
  <rect style="fill:A8A8A8" y="1572.79" width="992.05" height="11.95"/>
  <path style="fill:#213440;" d="M501.23,958.25a1.93,1.93,0,0,1,0,.48,3.38,3.38,0,0,1-.61,1.75l-.23.31-.92,1.26-11.34,15.49-2.46,3.35L73.54,1573.39l-.88,1.19v120.55a2.56,2.56,0,1,1-5,0V1572.2l.65-.88L480.31,979l2-2.78,12.91-17.6.33-.45a14.56,14.56,0,0,0,2.08.24c.36,0,.72,0,1.08,0h.74A17.21,17.21,0,0,0,501.23,958.25Z"/>
  <path style="fill:#213440;" d="M499.48,958.4l0,.05,0,0Z"/>
  <path style="fill:#213440;" d="M931.24,1571.44v123.68a2.56,2.56,0,1,1-5,0V1573.84l-.88-1.21L511.14,974.48a38.08,38.08,0,0,0,4.64-2.89Z"/>
  <rect style="fill:#213440;" x="489.74" width="10" height="773.16"/>

</svg>