<svg xmlns="http://www.w3.org/2000/svg" viewBox="0 0 285.91 210.23">

  <polygon style="fill:#996847;" points="238.36 158.15 238.36 161.15 237.56 161.15 238.36 158.15"/>
  <path style="fill:#609bbe;" d="M253.72,56c-1.45-.26-4.23-.51-4.31-.51H232.86a11.89,11.89,0,0,1,.82,4.35v6a12,12,0,0,1-12,12H176.44A5.47,5.47,0,0,0,171,83.25V86a5.48,5.48,0,0,0,5.46,5.46h5.45a5.36,5.36,0,0,0,1-.09,12,12,0,0,1,11.47,12v16.51a12,12,0,0,1-12,12H130.4a12,12,0,0,1-12-12V103.33a12,12,0,0,1,12-12H143a5.7,5.7,0,0,0,1.1.11h5.46A5.48,5.48,0,0,0,155,86V83.25a5.47,5.47,0,0,0-5.45-5.45h-7.1a12,12,0,0,1-12-12v-6a11.89,11.89,0,0,1,.82-4.35H61.79V205.36a4.88,4.88,0,0,0,4.87,4.87h2.91a4.88,4.88,0,0,0,4.86-4.87V131.52a69.63,69.63,0,0,0,42.28,28.07v45.77a4.88,4.88,0,0,0,4.87,4.87h2.9a4.88,4.88,0,0,0,4.87-4.87V161.12c.69,0,1.38,0,2.08,0h93l-11.28,42.2a4.88,4.88,0,0,0,3.45,6l2.8.76a4.88,4.88,0,0,0,6-3.45l12.16-45.47.8-3v47.21a4.88,4.88,0,0,0,4.87,4.87h2.9a4.88,4.88,0,0,0,4.87-4.87V160.05a9.25,9.25,0,0,0,4.6-5.79c4.32-16,12.91-47.51.56-90.56,7.81,2,19.37,7.34,19.37,21v47.64c1.06-1.7,2.34-2.7,3.72-2.7a4.24,4.24,0,0,1,3.28,2.06v-47C282.53,65.64,265.48,58,253.72,56Zm-11.86,87.9a7.29,7.29,0,0,1-7.27,7.27H214.8a7.29,7.29,0,0,1-7.27-7.27v-3.76a7.29,7.29,0,0,1,7.27-7.27h19.79a7.29,7.29,0,0,1,7.27,7.27Zm6.58-39.26a5.39,5.39,0,0,1-3.85,1.61h-5.46a5.46,5.46,0,0,1,0-10.91h5.46a5.44,5.44,0,0,1,3.85,9.3Z"/>
  <rect style="fill:#609bbe;" x="207.53" y="132.86" width="34.33" height="18.3" rx="7.27"/>
  <path style="fill:#609bbe;" d="M250,100.78a5.48,5.48,0,0,1-5.45,5.46h-5.46a5.46,5.46,0,0,1,0-10.91h5.46A5.46,5.46,0,0,1,250,100.78Z"/>
  <path style="fill:#609bbe;" d="M282.53,131.68v2.47a3.5,3.5,0,0,1-7,0v-1.83c1.06-1.7,2.34-2.7,3.72-2.7A4.24,4.24,0,0,1,282.53,131.68Z"/>
  <path style="fill:#213440;" d="M285.91,145.38c0,8.71-6.66,15.77-6.66,15.77s-6.65-7.06-6.65-15.77c0-5.44,1.16-10.23,2.93-13.06,1.06-1.7,2.34-2.7,3.72-2.7a4.24,4.24,0,0,1,3.28,2.06C284.55,134.39,285.91,139.51,285.91,145.38Z"/>
  <path style="fill:#213440;" d="M233.68,59.83v6a12,12,0,0,1-12,12H176.44A5.47,5.47,0,0,0,171,83.25V86a5.48,5.48,0,0,0,5.46,5.46h5.45a5.36,5.36,0,0,0,1-.09,12,12,0,0,1,11.47,12v16.51a12,12,0,0,1-12,12H130.4a12,12,0,0,1-12-12V103.33a12,12,0,0,1,12-12H143a5.7,5.7,0,0,0,1.1.11h5.46A5.48,5.48,0,0,0,155,86V83.25a5.47,5.47,0,0,0-5.45-5.45h-7.1a12,12,0,0,1-12-12v-6a11.89,11.89,0,0,1,.82-4.35H232.86A11.89,11.89,0,0,1,233.68,59.83Z"/>
  <path style="fill:#213440;" d="M250,100.78a5.48,5.48,0,0,1-5.45,5.46h-5.46a5.46,5.46,0,0,1,0-10.91h5.46A5.46,5.46,0,0,1,250,100.78Z"/>
  <rect style="fill:#213440;" x="207.53" y="132.86" width="34.33" height="18.3" rx="7.27"/>
  <path style="fill:#609bbe;" d="M93.09,42.94c8.6-1.35,14.12-11.61,14.12-11.61s-8.41-8-17-6.7S75.27,31.19,76.07,36.25,84.48,44.3,93.09,42.94Z"/>
  <path style="fill:#213440;" d="M92.66,40.23c6-.95,9.94-8.17,9.94-8.17s-5.92-5.67-12-4.71S80.12,32,80.68,35.52,86.6,41.19,92.66,40.23Z"/>
  <path style="fill:#609bbe;" d="M14.13,42.94C5.53,41.59,0,31.33,0,31.33s8.42-8,17-6.7,14.92,6.56,14.13,11.62S22.73,44.3,14.13,42.94Z"/>
  <path style="fill:#213440;" d="M14.56,40.23c-6.06-.95-9.95-8.17-9.95-8.17s5.93-5.67,12-4.71,10.5,4.61,9.94,8.17S20.61,41.19,14.56,40.23Z"/>
  <path style="fill:#213440;" d="M39,26.79a33.93,33.93,0,0,1-14.55-3.72c-10.8-5.19-11.29-17.4-11.3-17.92a5,5,0,0,1,10-.34c0,.34.41,6.73,5.64,9.25,6.49,3.13,10.8,2.71,10.84,2.71A5,5,0,0,1,45.26,21,5,5,0,0,1,41,26.68,14.2,14.2,0,0,1,39,26.79Z"/>
  <path style="fill:#213440;" d="M70.41,26.79a14.2,14.2,0,0,1-2-.11,5,5,0,1,1,1.41-9.9h.51a24.3,24.3,0,0,0,10.25-2.73c5.29-2.55,5.64-9.15,5.64-9.21a5,5,0,1,1,10,.3c0,.52-.5,12.73-11.3,17.92A34,34,0,0,1,70.41,26.79Z"/>
  <path style="fill:#609bbe;" d="M83.92,40.16,81.63,51.83l-7,35.63L74.34,89A14,14,0,0,1,73,94.88C70,101.35,62.27,106,53.15,106s-16.88-4.6-19.87-11.07A14,14,0,0,1,32,89L24.68,51.83,22.39,40.16a30.77,30.77,0,1,1,61.53,0Z"/>
  <circle style="fill:#609bbe;" cx="41.08" cy="18.06" r="8.67"/>
  <circle style="fill:#609bbe;" cx="49.75" cy="15.81" r="8.67"/>
  <circle style="fill:#609bbe;" cx="58.42" cy="15.81" r="8.67"/>
  <circle style="fill:#609bbe;" cx="67.08" cy="18.06" r="8.67"/>
  <circle style="fill:#213440;" cx="39.01" cy="45.53" r="2.26"/>
  <circle style="fill:#213440;" cx="68.01" cy="45.53" r="2.26"/>
  <path style="fill:#213440;" d="M73,94.88C70,101.35,62.27,106,53.15,106s-16.88-4.6-19.87-11.07a47.86,47.86,0,0,1,39.74,0Z"/>

</svg>