<svg xmlns="http://www.w3.org/2000/svg" viewBox="0 0 66.02 82.38">

  <polygon style="fill:#609bbe;" points="14.61 0 14.61 5.06 9.93 5.06 9.93 15.97 4.48 15.97 4.48 31.35 14.61 31.35 14.61 36.03 9.54 36.03 9.54 41.12 5.06 41.12 5.06 47.13 0 47.13 0 66.99 9.54 66.99 9.54 72.06 5.26 72.06 5.26 76.53 0 76.53 0 82.38 24.73 82.38 24.73 72.06 29.6 72.06 29.6 67.38 35.44 67.38 35.44 71.86 40.51 71.86 40.51 82.38 66.02 82.38 66.02 77.31 60.76 77.31 60.76 72.25 55.89 72.25 55.89 67.19 66.02 67.19 66.02 47.52 60.57 47.52 60.57 41.19 46.15 41.19 46.15 36.03 56.48 36.03 56.48 31.16 60.18 31.16 60.18 26.29 66.02 26.29 66.02 21.03 60.95 21.03 60.95 15.97 50.83 15.97 50.83 11.29 60.57 11.29 60.57 5.06 45.57 5.06 45.57 0 14.61 0"/>
  <polygon style="fill:#416980;" points="60.18 31.16 36.03 31.16 36.03 26.36 40.9 26.36 40.9 20.91 45.58 20.91 45.58 26.03 60.18 26.03 60.18 31.16"/>
  <polygon style="fill:#416980;" points="19.67 36.29 24.74 36.29 24.74 47.39 35.84 47.39 35.84 41.19 40.51 41.19 40.51 52.06 45.77 52.06 45.77 62.19 51.03 62.19 51.03 66.86 55.89 66.86 55.89 72.25 35.44 72.25 35.44 67.38 29.6 67.38 29.6 72.06 9.54 72.06 9.54 62.39 14.61 62.39 14.61 52.45 19.87 52.45 19.67 36.29"/>
  <polygon style="fill:#416980;" points="60.57 11.29 9.93 11.29 9.93 5.06 14.61 5.06 14.61 0 45.57 0 45.57 4.94 60.57 4.94 60.57 11.29"/>

</svg>