<svg xmlns="http://www.w3.org/2000/svg" viewBox="0 0 361.41 361.41">

  <path d="M180.7,361.41C81.06,361.41,0,280.34,0,180.7S81.06,0,180.7,0,361.41,81.06,361.41,180.7,280.34,361.41,180.7,361.41ZM180.7,5C83.82,5,5,83.82,5,180.7S83.82,356.41,180.7,356.41,356.41,277.59,356.41,180.7,277.59,5,180.7,5Z"/>
  <circle cx="180.7" cy="180.7" r="178.2"/>
  <g class="no-symbol">
    <path d="M124.16,239.75a2.51,2.51,0,0,1-1.77-4.27L235.48,122.39a2.5,2.5,0,1,1,3.53,3.54L125.93,239A2.5,2.5,0,0,1,124.16,239.75Z"/>
    <path d="M237.25,239.75a2.5,2.5,0,0,1-1.77-.74L122.39,125.93a2.5,2.5,0,1,1,3.54-3.54L239,235.48a2.49,2.49,0,0,1,0,3.53A2.46,2.46,0,0,1,237.25,239.75Z"/>
  </g>

</svg>