<svg xmlns="http://www.w3.org/2000/svg" viewBox="0 0 295.12 295.11" style="opacity: 0.75">
  <path style="fill:#f1f2f2;" d="M293.62,147.56A146.05,146.05,0,0,1,147.56,293.61c-1.49,0-3,0-4.45-.07A146.05,146.05,0,1,1,293.6,145.31C293.61,146.06,293.62,146.81,293.62,147.56Z"/>
  <path style="fill:#4370b7;" d="M147.56,295.11c-1.63,0-3.11,0-4.5-.07A147.56,147.56,0,0,1,0,147.56C0,66.2,66.19,0,147.56,0A147.57,147.57,0,0,1,295.1,145.29c0,.76,0,1.51,0,2.27C295.12,228.92,228.92,295.11,147.56,295.11ZM147.56,3C67.85,3,3,67.85,3,147.56A144.57,144.57,0,0,0,143.15,292c1.37,0,2.81.07,4.41.07,79.71,0,144.56-64.84,144.56-144.55,0-.74,0-1.48,0-2.23A144.54,144.54,0,0,0,147.56,3Z"/>
  <path style="fill:#4370b7;" d="M138.07,172.63l-.3-4c-.92-8.26,1.83-17.29,9.48-26.47,6.89-8.11,10.71-14.08,10.71-21,0-7.8-4.89-13-14.53-13.16-5.51,0-11.63,1.84-15.45,4.74l-3.67-9.63c5-3.68,13.76-6.12,21.87-6.12,17.6,0,25.55,10.86,25.55,22.49,0,10.4-5.81,17.9-13.15,26.62-6.74,8-9.18,14.69-8.72,22.49l.15,4Zm-3.36,21.42c0-5.66,3.82-9.64,9.18-9.64s9,4,9,9.64c0,5.35-3.52,9.48-9.18,9.48C138.38,203.53,134.71,199.4,134.71,194.05Z"/>
</svg>