<svg xmlns="http://www.w3.org/2000/svg" viewBox="0 0 1177.4 1384.95">

  <path style="fill:#f1f2f2;" d="M743.61,156.51A154.9,154.9,0,0,1,588.7,311.41c-1.58,0-3.15,0-4.72-.07A154.91,154.91,0,1,1,743.59,154.12C743.6,154.91,743.61,155.71,743.61,156.51Z"/>
  <path style="fill:#4370b7;" d="M588.7,313c-1.73,0-3.3,0-4.78-.07A156.53,156.53,0,0,1,432.19,156.51C432.19,70.21,502.4,0,588.7,0A156.5,156.5,0,0,1,745.18,154.1c0,.8,0,1.6,0,2.41C745.2,242.8,675,313,588.7,313Zm0-309.82C504.16,3.18,435.37,72,435.37,156.51A153.33,153.33,0,0,0,584,309.75c1.45,0,3,.07,4.67.07C673.24,309.82,742,241,742,156.51c0-.79,0-1.58,0-2.37a153.32,153.32,0,0,0-153.3-151Z"/>
  <path style="fill:#4370b7;" d="M578.64,183.09l-.33-4.22c-1-8.76,2-18.33,10.06-28.07,7.31-8.6,11.36-14.93,11.36-22.23,0-8.28-5.19-13.79-15.41-14-5.84,0-12.34,2-16.39,5L564,109.42c5.36-3.9,14.61-6.49,23.21-6.49,18.66,0,27.1,11.52,27.1,23.85,0,11-6.17,19-14,28.24-7.14,8.44-9.73,15.58-9.25,23.85l.17,4.22Zm-3.57,22.72c0-6,4-10.22,9.73-10.22s9.58,4.22,9.58,10.22c0,5.68-3.73,10.06-9.74,10.06C579,215.87,575.07,211.49,575.07,205.81Z"/>

</svg>