<svg xmlns="http://www.w3.org/2000/svg" viewBox="0 0 250.64 250.64">

  <circle style="fill:#2D2E83;" cx="124.01" cy="124.43" r="104.43"/>
  <path style="fill:#fff;" d="M202.75,122.66V119h0a36,36,0,0,0-32-32h-3.87a35.69,35.69,0,0,0-25.37,10.44l-12.28,12,8.88,8.88,8.83-8.88h0l3.34-3.34a23.32,23.32,0,0,1,16.6-7.1h2.4a23.44,23.44,0,0,1,20.89,20.89h0v1h0V122h0v1.15h0v1h0a23.45,23.45,0,0,1-12.84,19.53h0l-.68.31h-.89l-.73.26h0a23.49,23.49,0,0,1-24.23-5.58l-3.29-3.29h0l-22.14-22.14h0L90,78,81.2,86.83l-36,35.88,8.88,8.87,35.35,35.3,8.87-8.82,22.09-22.14-8.82-8.83L89.45,149.18,62.92,122.66,89.45,96.13l13.26,13.31h0l35.4,35.41h0l3.29,3.23a35.57,35.57,0,0,0,25.38,10.45h0a36.83,36.83,0,0,0,11.69-1.93h.26l1.1-.42.68-.26.68-.32,1-.47h.32a34.62,34.62,0,0,0,9.6-6.89,35.29,35.29,0,0,0,10.45-21.72h0V124.9h0v-1.83h0Z"/>

</svg>