<svg xmlns="http://www.w3.org/2000/svg" viewBox="0 0 1624.23 744.86">

  <path style="fill:#609bbe;" d="M872.77,503.74a60.66,60.66,0,1,1-60.66-60.66A60.66,60.66,0,0,1,872.77,503.74Z"/>
  <path style="fill:#609bbe;" d="M1111.6,299.49a300.31,300.31,0,0,1-2.08,35.43l-1.33-.4s-227.71,24.53-296.08,24.53c-68.57,0-296.08-24.53-296.08-24.53l-1.32.4a300.31,300.31,0,0,1-2.08-35.43C512.63,134.09,646.71,0,812.11,0S1111.6,134.09,1111.6,299.49Z"/>
  <path style="fill:#609bbe;" d="M1424.72,558.66c-168.91,116.67-381.56,186.2-612.61,186.2-231.89,0-445.25-70-614.46-187.48,82.6,25,176,52.12,273.85,74.48,128.82,29.45,234.91,43.84,323.56,43.84,5.81,0,11.56-.07,17.22-.19,97.87,0,215-15.31,348.13-45.45C1261.18,607.25,1358.67,578.7,1424.72,558.66Z"/>
  <path style="fill:#609bbe;" d="M516,444.94a43.82,43.82,0,1,1-43.82-43.82A43.81,43.81,0,0,1,516,444.94Z"/>
  <path style="fill:#609bbe;" d="M872.77,503.74a60.66,60.66,0,1,1-60.66-60.66A60.66,60.66,0,0,1,872.77,503.74Z"/>
  <path style="fill:#609bbe;" d="M1195.83,444.94A43.82,43.82,0,1,1,1152,401.12,43.81,43.81,0,0,1,1195.83,444.94Z"/>
  <path style="fill:#213440;" d="M1534.26,462.7,1109.52,334.92l-1.33-.4s-227.71,24.53-296.08,24.53c-68.57,0-296.08-24.53-296.08-24.53l-1.32.4L90,462.7,31.2,480.38c17.67,3.93,52.08,12.06,98.46,25.29,12.8,3.65,26.52,7.69,41.05,12.14,90.44,27.7,196.24,59.38,307.47,84.81,133,30.41,245.26,44.84,333.6,42.89h.33c95.68,0,210.64-15,341.68-44.7C1274.06,573.58,1390,538,1452.24,518.88c14.61-4.49,28.38-8.57,41.22-12.28,47.38-13.65,82.16-22.11,99.78-26.16Zm-1062,26.05A43.82,43.82,0,1,1,516,444.94,43.8,43.8,0,0,1,472.21,488.75Zm339.9,75.66a60.67,60.67,0,1,1,60.66-60.67A60.66,60.66,0,0,1,812.11,564.41ZM1152,488.75a43.82,43.82,0,1,1,43.82-43.81A43.81,43.81,0,0,1,1152,488.75Z"/>
  <path style="fill:#213440;" d="M516,444.94a43.82,43.82,0,1,1-43.82-43.82A43.81,43.81,0,0,1,516,444.94Z"/>
  <path style="fill:#213440;" d="M1195.83,444.94A43.82,43.82,0,1,1,1152,401.12,43.81,43.81,0,0,1,1195.83,444.94Z"/>
  <path style="fill:#213440;" d="M872.77,503.74a60.66,60.66,0,1,1-60.66-60.66A60.66,60.66,0,0,1,872.77,503.74Z"/>
  <path style="fill:#bcbcbc;" d="M1612.3,506.93c-.6.13-60.25,12.69-151.26,40.63-10.63,3.27-22.82,7-36.32,11.1-66,20-163.54,48.59-264.31,71.4-133.13,30.14-250.26,45.43-348.13,45.45-5.66.12-11.41.19-17.22.19-88.65,0-194.74-14.39-323.56-43.84-97.83-22.36-191.25-49.44-273.85-74.48q-18.22-5.52-35.72-10.89C72.38,519.08,12.67,507.08,12.07,507a15,15,0,0,1,5.85-29.42c.65.13,5.23,1,13.28,2.84,17.67,3.93,52.08,12.06,98.46,25.29,12.8,3.65,26.52,7.69,41.05,12.14,90.44,27.7,196.24,59.38,307.47,84.81,133,30.41,245.26,44.84,333.6,42.89h.33c95.68,0,210.64-15,341.68-44.7C1274.06,573.58,1390,538,1452.24,518.88c14.61-4.49,28.38-8.57,41.22-12.28,47.38-13.65,82.16-22.11,99.78-26.16,7.84-1.81,12.29-2.74,12.93-2.87a15,15,0,0,1,6.13,29.36Z"/>
  <path style="fill:#bcbcbc;" d="M516,444.94a43.82,43.82,0,1,1-43.82-43.82A43.81,43.81,0,0,1,516,444.94Z"/>
  <path style="fill:#bcbcbc;" d="M872.77,503.74a60.66,60.66,0,1,1-60.66-60.66A60.66,60.66,0,0,1,872.77,503.74Z"/>
  <path style="fill:#bcbcbc;" d="M1195.83,444.94A43.82,43.82,0,1,1,1152,401.12,43.81,43.81,0,0,1,1195.83,444.94Z"/>

</svg>