<svg xmlns="http://www.w3.org/2000/svg" viewBox="0 0 361.41 361.41">

  <path d="M180.7,361.41C81.06,361.41,0,280.34,0,180.7S81.06,0,180.7,0,361.41,81.06,361.41,180.7,280.34,361.41,180.7,361.41ZM180.7,5C83.82,5,5,83.82,5,180.7S83.82,356.41,180.7,356.41,356.41,277.59,356.41,180.7,277.59,5,180.7,5Z"/>
  <circle cx="180.7" cy="180.7" r="178.2"/>
  <g class="yes-symbol">
    <path d="M150.65,239.75a2.5,2.5,0,0,1-1.77-.74l-53-53a2.5,2.5,0,1,1,3.54-3.53l51.21,51.21L262,122.39a2.5,2.5,0,1,1,3.53,3.54L152.42,239A2.5,2.5,0,0,1,150.65,239.75Z"/>
  </g>
  
</svg>