<svg xmlns="http://www.w3.org/2000/svg" viewBox="0 0 398.75 372.5"><defs><style>.annoyM-1{fill:tomato;}.annoyM-2{fill:#f4b350;}.annoyM-3{fill:#00bb8c;}.annoyM-4{fill:#ef3535;}.annoyM-5{fill:#87d37c;}.annoyM-6{font-size:14.8px;fill:#2d2e83;font-family:AmericanTypewriter-Bold, American Typewriter;font-weight:700;}</style></defs><title>Annoy-O-Meter_1</title><g id="Layer_2" data-name="Layer 2"><g id="Layer_1-2" data-name="Layer 1"><path class="annoyM-1" d="M182.84,128.48a113.31,113.31,0,0,0-47.05,22.71L88.91,93.64A186.26,186.26,0,0,1,166.24,56.3Q174.54,92.39,182.84,128.48Z"/><path class="annoyM-2" d="M234.45,128.48a118.55,118.55,0,0,0-51.61,0q-8.29-36.09-16.6-72.18a195.06,195.06,0,0,1,84.81,0Q242.76,92.39,234.45,128.48Z"/><path class="annoyM-3" d="M281.5,151.19a113.31,113.31,0,0,0-47.05-22.71q8.3-36.09,16.6-72.18a186.35,186.35,0,0,1,77.34,37.34Z"/><path class="annoyM-4" d="M135.79,151.19A112.26,112.26,0,0,0,112.05,178c-6,9.23-15.73,15.81-23.51,12.89L34,168.31c12.89-31.11,32-56,54.88-74.67Z"/><path class="annoyM-5" d="M305.24,178a111.83,111.83,0,0,0-23.74-26.81l46.89-57.55c22.86,18.67,42,43.56,54.87,74.67l-54.51,22.58C321,193.81,311.19,187.23,305.24,178Z"/><text class="annoyM-6" transform="matrix(0.38, -0.91, 0.92, 0.39, 28.57, 164.3)">I</text><text class="annoyM-6" transform="translate(31.14 158.03) rotate(-63.99) scale(0.98 1)">R</text><text class="annoyM-6" transform="translate(35.96 148.15) rotate(-60.16) scale(0.98 1)">R</text><text class="annoyM-6" transform="translate(41.49 138.62) rotate(-57.15) scale(0.98 1)">I</text><text class="annoyM-6" transform="matrix(0.57, -0.8, 0.81, 0.58, 45.14, 132.9)">T</text><text class="annoyM-6" transform="matrix(0.62, -0.77, 0.78, 0.63, 50.77, 124.97)">A</text><text class="annoyM-6" transform="matrix(0.66, -0.73, 0.74, 0.67, 57.91, 116.18)">T</text><text class="annoyM-6" transform="matrix(0.7, -0.69, 0.7, 0.71, 64.59, 108.82)">E</text><text class="annoyM-6" transform="matrix(0.74, -0.65, 0.66, 0.75, 72.27, 101.27)">D</text><text class="annoyM-6" transform="matrix(0.76, -0.62, 0.63, 0.78, 80.41, 94.21)"> </text><text class="annoyM-6" transform="matrix(0.77, -0.61, 0.62, 0.79, 83.2, 91.93)"> </text><text class="annoyM-6" transform="matrix(0.8, -0.58, 0.59, 0.81, 85.94, 89.68)">A</text><text class="annoyM-6" transform="translate(95.25 82.9) rotate(-32.55) scale(0.98 1)">N</text><text class="annoyM-6" transform="translate(105.89 76.11) rotate(-29.04) scale(0.98 1)">N</text><text class="annoyM-6" transform="translate(116.7 70.13) rotate(-26.02) scale(0.98 1)">O</text><text class="annoyM-6" transform="translate(125.68 65.74) rotate(-23.21) scale(0.98 1)">Y</text><text class="annoyM-6" transform="matrix(0.92, -0.34, 0.35, 0.94, 135.56, 61.5)">E</text><text class="annoyM-6" transform="matrix(0.94, -0.3, 0.3, 0.95, 145.63, 57.76)">D</text><text class="annoyM-6" transform="translate(155.95 54.57) rotate(-15.63) scale(0.98 1)"> </text><text class="annoyM-6" transform="translate(159.41 53.6) rotate(-14.7) scale(0.98 1)"> </text><text class="annoyM-6" transform="translate(162.91 52.68) rotate(-13.76) scale(0.98 1)"> </text><text class="annoyM-6" transform="translate(166.4 51.82) rotate(-12.84) scale(0.98 1)"> </text><text class="annoyM-6" transform="translate(169.8 50.88) rotate(-10.02) scale(0.98 1)">N</text><text class="annoyM-6" transform="translate(182.22 48.63) rotate(-7.21) scale(0.98 1)">E</text><text class="annoyM-6" transform="translate(192.86 47.26) rotate(-3.76) scale(0.98 1)">U</text><text class="annoyM-6" transform="translate(204.9 46.49) rotate(-0.43) scale(0.98 1)">T</text><text class="annoyM-6" transform="translate(214.87 46.4) rotate(2.73) scale(0.98 1)">R</text><text class="annoyM-6" transform="matrix(0.98, 0.11, -0.11, 0.99, 226.42, 46.96)">A</text><text class="annoyM-6" transform="translate(237.9 48.24) rotate(9.47) scale(0.98 1)">L</text><text class="annoyM-6" transform="translate(247.74 49.94) rotate(11.47) scale(0.98 1)"> </text><text class="annoyM-6" transform="matrix(0.96, 0.21, -0.22, 0.98, 251.29, 50.66)"> </text><text class="annoyM-6" transform="matrix(0.96, 0.23, -0.23, 0.97, 254.79, 51.44)"> </text><text class="annoyM-6" transform="translate(258.3 52.28) rotate(14.65) scale(0.98 1)"> </text><text class="annoyM-6" transform="matrix(0.94, 0.28, -0.28, 0.96, 261.76, 53.14)">C</text><text class="annoyM-6" transform="translate(270.55 55.73) rotate(19.29) scale(0.98 1)">O</text><text class="annoyM-6" transform="matrix(0.91, 0.38, -0.38, 0.92, 279.96, 58.98)">N</text><text class="annoyM-6" transform="translate(291.59 63.85) rotate(25.82) scale(0.98 1)">T</text><text class="annoyM-6" transform="translate(300.55 68.17) rotate(28.81) scale(0.98 1)">E</text><text class="annoyM-6" transform="translate(309.98 73.33) rotate(32.2) scale(0.98 1)">N</text><text class="annoyM-6" transform="translate(320.64 80.07) rotate(35.5) scale(0.98 1)">T</text><text class="annoyM-6" transform="matrix(0.78, 0.6, -0.61, 0.79, 328.73, 85.92)"> </text><text class="annoyM-6" transform="translate(331.58 88.1) rotate(38.57) scale(0.98 1)"> </text><text class="annoyM-6" transform="matrix(0.76, 0.63, -0.64, 0.77, 334.4, 90.35)"> </text><text class="annoyM-6" transform="matrix(0.74, 0.65, -0.66, 0.75, 337.17, 92.59)">S</text><text class="annoyM-6" transform="translate(343.85 98.45) rotate(44.65) scale(0.98 1)">A</text><text class="annoyM-6" transform="matrix(0.66, 0.73, -0.74, 0.67, 351.92, 106.43)">T</text><text class="annoyM-6" transform="matrix(0.62, 0.76, -0.77, 0.63, 358.57, 113.86)">I</text><text class="annoyM-6" transform="matrix(0.59, 0.79, -0.8, 0.6, 362.89, 119.08)">S</text><text class="annoyM-6" transform="matrix(0.55, 0.82, -0.83, 0.55, 368.24, 126.19)">F</text><text class="annoyM-6" transform="translate(373.87 134.72) rotate(59.3) scale(0.98 1)">I</text><text class="annoyM-6" transform="translate(377.37 140.51) rotate(62.39) scale(0.98 1)">E</text><text class="annoyM-6" transform="matrix(0.4, 0.9, -0.92, 0.4, 382.34, 149.99)">D</text></g></g></svg>