<svg xmlns="http://www.w3.org/2000/svg" viewBox="0 0 273.8 352.86"><defs><style>.apple-1{fill:none;stroke:#735400;stroke-linecap:round;stroke-miterlimit:10;stroke-width:13px;}.apple-2{fill:red;}.apple-3{fill:#a5ff8b;}</style></defs><title>Apple</title><g id="Layer_2" data-name="Layer 2"><g id="Layer_1-2" data-name="Layer 1"><path class="apple-1" d="M133,127.57c11.12-35.41-3.93-69.16-30-80.11-21-8.79-42.83-.28-48.27,2"/><path class="apple-2" d="M176.32,179.93c9.55,48.21-8.38,162.73-56.59,172.28S11.27,262.74,1.71,214.52a89,89,0,0,1,174.61-34.59Z"/><path class="apple-2" d="M97.48,179.93c-9.56,48.21,8.37,162.73,56.59,172.28s108.46-89.47,118-137.69a89,89,0,1,0-174.6-34.59Z"/><path class="apple-3" d="M213.44,66.56c-25.92,27.92-64.16,34.57-64.16,34.57S153.07,62.5,179,34.58,243.17,0,243.17,0,239.37,38.63,213.44,66.56Z"/></g></g></svg>