<svg xmlns="http://www.w3.org/2000/svg" viewBox="0 0 1317.26 588.13"><defs><style>.banana-1{fill:#f6b200;}.banana-2{fill:#f6ca4e;}.banana-3{fill:#603f17;}</style></defs><title>Banana</title><g id="Layer_2" data-name="Layer 2"><g id="Layer_1-2" data-name="Layer 1"><path class="banana-1" d="M1278,92q-15.7,36.09-32,71.52C1222.83,214,1192.25,263,1155.8,303.9q-5.31,6-10.66,11.84c-24.75,27.22-52.06,49.45-80.33,64.73C873.34,484.09,652.54,511.68,447.09,463.21q-6.66-1.56-13.28-3.24c-62.39-15.66-122.12-53.68-173.59-109.59C183.48,267.21,47,59.07,47,59.07V.24S220.73,177,319.84,235.45a269.34,269.34,0,0,0,41.07,19.84q39.85,15.14,80.75,26.25c225,61.22,468.92,31,672.86-90.64q30.72-18.33,60.16-39.41A1249.18,1249.18,0,0,0,1278,35Z"/><path class="banana-2" d="M1316,106c-10.47,24.06-47.13,135.58-58,159.2-23.18,50.47-53.76,99.53-90.21,140.41q-5.31,6-10.66,11.84c-24.75,27.23-52.06,49.45-80.33,64.73C885.34,585.85,664.54,613.43,459.09,565q-6.66-1.58-13.28-3.24C383.42,546.06,314.71,514.89,272,452,211.19,362.56,0,70,0,70s47,8.61,47-11c80.89,98.38,185.73,219.74,284.84,278.16A269.34,269.34,0,0,0,372.91,357q39.85,15.13,80.75,26.25c225,61.23,468.92,31,672.86-90.64q30.72-18.31,60.16-39.41c36.13-35.92,58.7-119.48,91.32-161.2C1278,111,1316,87.05,1316,106Z"/><path class="banana-3" d="M1278,35s-46,66,38,71C1316,106,1328,60,1278,35Z"/><path class="banana-3" d="M0,71S19-2,47,0V59S44,83,0,71Z"/></g></g></svg>