<svg xmlns="http://www.w3.org/2000/svg" viewBox="0 0 281.88 2128.71"><defs><style>.cabin-1{fill:#a09593;}.cabin-2,.cabin-6{fill:#292f35;}.cabin-3,.cabin-7,.cabin-8{fill:#4e545c;}.cabin-4{fill:#666d79;}.cabin-5{fill:#a0aec4;}.cabin-6,.cabin-7,.cabin-8{stroke:#292f35;stroke-miterlimit:10;}.cabin-6{stroke-width:7px;}.cabin-7{stroke-width:4px;}.cabin-8{stroke-linecap:round;stroke-width:5px;}.cabin-9{opacity:0.6;}.cabin-10{fill:#c0d1dd;}.cabin-11{fill:#98d2ea;opacity:0.5;}</style></defs><title>Cabin</title><g id="Layer_2" data-name="Layer 2"><g id="Layer_3" data-name="Layer 3"><rect class="cabin-1" x="0.33" y="1766.7" width="280.67" height="276.97"/><path class="cabin-2" d="M100.33,1670.5h80.9a11.23,11.23,0,0,1,11.23,11.23v0a0,0,0,0,1,0,0H89.1a0,0,0,0,1,0,0v0A11.23,11.23,0,0,1,100.33,1670.5Z"/><rect class="cabin-3" x="0.33" y="1765.99" width="30.7" height="280.35"/><rect class="cabin-3" x="251.17" y="1764.56" width="30.7" height="280.11"/><rect class="cabin-4" x="269.55" y="1838.9" width="12.32" height="74.35"/><circle class="cabin-5" cx="275.71" cy="1852.08" r="4.26"/><circle class="cabin-5" cx="275.71" cy="1898.89" r="4.26"/><circle class="cabin-5" cx="275.71" cy="1867.73" r="4.26"/><circle class="cabin-5" cx="275.71" cy="1883.31" r="4.26"/><rect class="cabin-4" x="72.18" y="2043.67" width="133.38" height="32.13"/><rect class="cabin-4" x="73.19" y="2079.39" width="132" height="49.32"/><polygon class="cabin-3" points="281.88 1731.05 209.02 1731.05 209.02 1681.73 281.88 1697.21 281.88 1731.05"/><polygon class="cabin-3" points="72.53 1731.05 0.33 1731.05 0.33 1697.21 72.53 1681.73 72.53 1731.05"/><polygon class="cabin-3" points="281.88 2113.73 205.18 2128.71 205.18 2079.39 281.88 2079.39 281.88 2113.73"/><polygon class="cabin-3" points="73.19 2128.71 0.33 2113.73 0.33 2079.39 73.19 2079.39 73.19 2128.71"/><rect class="cabin-2" x="3.63" y="2075.79" width="275.12" height="3.6"/><rect class="cabin-2" x="2.17" y="1731.05" width="277.61" height="3.52"/><path class="cabin-6" d="M173.88,1681.73,175.88,0Z"/><path class="cabin-6" d="M141.43,1681.73,143.43,0Z"/><path class="cabin-6" d="M141.43,1681.73,143.43,0Z"/><path class="cabin-6" d="M109,1681.73,111,0Z"/><rect class="cabin-4" x="72.53" y="1681.73" width="136.49" height="49.32"/><rect class="cabin-3" x="208.68" y="1734.57" width="73.2" height="32.13"/><rect class="cabin-3" x="0.33" y="1734.57" width="72.2" height="32.13"/><rect class="cabin-3" x="0.33" y="2043.67" width="72.85" height="32.13"/><rect class="cabin-3" x="205.56" y="2043.67" width="76.32" height="32.13"/><line class="cabin-7" x1="140.67" y1="1766.7" x2="141.43" y2="2043.67"/><rect class="cabin-4" x="72.53" y="1734.57" width="136.15" height="32.13"/><line class="cabin-8" x1="9.88" y1="1937.08" x2="271.42" y2="1937.08"/><g class="cabin-9"><polygon class="cabin-10" points="27.89 1960.93 5.07 1969.15 5.01 1883.94 27.89 1875.73 27.89 1960.93"/><polygon class="cabin-10" points="38.92 1870.33 38.92 1955.61 242.12 1882.49 242.12 1795.91 38.92 1870.33"/><polygon class="cabin-10" points="255.28 1877.75 255.28 1791.09 275.69 1783.61 275.69 1870.41 255.28 1877.75"/></g><g class="cabin-9"><polygon class="cabin-10" points="4.01 2000.8 4.01 2036.01 27.08 2027.71 27.08 1993.17 4.01 2000.8"/><polygon class="cabin-10" points="39.11 1988.77 39.11 2023.38 242.68 1950.13 242.68 1914.21 39.11 1988.77"/><polygon class="cabin-10" points="255.72 1909.43 255.72 1945.44 275.77 1938.22 275.77 1902.09 255.72 1909.43"/></g><rect class="cabin-11" y="1767.08" width="281.79" height="276.66"/></g></g></svg>