<svg xmlns="http://www.w3.org/2000/svg" viewBox="0 0 281.54 2128.71"><defs><style>.cabin-1{fill:#a09593;}.cabin-2,.cabin-6{fill:#292f35;}.cabin-3,.cabin-7{fill:#4e545c;}.cabin-4{fill:#666d79;}.cabin-5{fill:#a0aec4;}.cabin-6,.cabin-7{stroke:#292f35;stroke-miterlimit:10;}.cabin-6{stroke-width:7px;}.cabin-7{stroke-width:4px;}</style></defs><title>Elevatorrr</title><g id="Layer_2" data-name="Layer 2"><g id="Layer_2-2" data-name="Layer 2"><rect class="cabin-1" y="1766.7" width="280.67" height="276.97"/><path class="cabin-2" d="M100,1670.5h80.9a11.23,11.23,0,0,1,11.23,11.23v0a0,0,0,0,1,0,0H88.77a0,0,0,0,1,0,0v0A11.23,11.23,0,0,1,100,1670.5Z"/><rect class="cabin-3" y="1765.99" width="30.7" height="280.35"/><rect class="cabin-3" x="250.84" y="1764.56" width="30.7" height="280.11"/><rect class="cabin-4" x="269.22" y="1838.9" width="12.32" height="74.35"/><circle class="cabin-5" cx="275.38" cy="1852.08" r="4.26"/><circle class="cabin-5" cx="275.38" cy="1898.89" r="4.26"/><circle class="cabin-5" cx="275.38" cy="1867.73" r="4.26"/><circle class="cabin-5" cx="275.38" cy="1883.31" r="4.26"/><rect class="cabin-4" x="71.85" y="2043.67" width="133.38" height="32.13"/><rect class="cabin-4" x="72.85" y="2079.39" width="132" height="49.32"/><polygon class="cabin-3" points="281.54 1731.05 208.69 1731.05 208.69 1681.73 281.54 1697.21 281.54 1731.05"/><polygon class="cabin-3" points="72.2 1731.05 0 1731.05 0 1697.21 72.2 1681.73 72.2 1731.05"/><polygon class="cabin-3" points="281.54 2113.73 204.85 2128.71 204.85 2079.39 281.54 2079.39 281.54 2113.73"/><polygon class="cabin-3" points="72.85 2128.71 0 2113.73 0 2079.39 72.85 2079.39 72.85 2128.71"/><rect class="cabin-2" x="3.29" y="2075.79" width="275.12" height="3.6"/><rect class="cabin-2" x="1.84" y="1731.05" width="277.61" height="3.52"/><path class="cabin-6" d="M173.54,1681.73,175.54,0Z"/><path class="cabin-6" d="M141.1,1681.73,143.1,0Z"/><path class="cabin-6" d="M141.1,1681.73,143.1,0Z"/><path class="cabin-6" d="M108.66,1681.73,110.66,0Z"/><rect class="cabin-4" x="72.2" y="1681.73" width="136.49" height="49.32"/><rect class="cabin-3" x="208.34" y="1734.57" width="73.2" height="32.13"/><rect class="cabin-3" y="1734.57" width="72.2" height="32.13"/><rect class="cabin-3" y="2043.67" width="72.85" height="32.13"/><rect class="cabin-3" x="205.23" y="2043.67" width="76.32" height="32.13"/><line class="cabin-7" x1="140.33" y1="1766.7" x2="141.1" y2="2043.67"/><rect class="cabin-4" x="72.2" y="1734.57" width="136.15" height="32.13"/></g></g></svg>