<svg xmlns="http://www.w3.org/2000/svg" viewBox="0 0 281.54 770.78"><defs><style>.cabin-1,.cabin-5{fill:#292f35;}.cabin-2{fill:#4e545c;}.cabin-3{fill:#666d79;}.cabin-4{fill:#a0aec4;}.cabin-5{stroke:#292f35;stroke-miterlimit:10;stroke-width:2px;}</style></defs><title>ElevatorOk_2</title><g id="Layer_2" data-name="Layer 2"><g id="Layer_3" data-name="Layer 3"><path class="cabin-1" d="M100,312.58h80.9a11.23,11.23,0,0,1,11.23,11.23v0a0,0,0,0,1,0,0H88.77a0,0,0,0,1,0,0v0A11.23,11.23,0,0,1,100,312.58Z"/><rect class="cabin-2" y="408.06" width="30.7" height="280.35"/><rect class="cabin-2" x="250.84" y="406.63" width="30.7" height="280.11"/><rect class="cabin-3" x="269.22" y="480.98" width="12.32" height="74.35"/><circle class="cabin-4" cx="275.38" cy="494.15" r="4.26"/><circle class="cabin-4" cx="275.38" cy="540.96" r="4.26"/><circle class="cabin-4" cx="275.38" cy="509.8" r="4.26"/><circle class="cabin-4" cx="275.38" cy="525.38" r="4.26"/><rect class="cabin-3" x="71.85" y="685.74" width="133.38" height="32.13"/><rect class="cabin-3" x="72.85" y="721.47" width="132" height="49.32"/><polygon class="cabin-2" points="281.54 373.12 208.69 373.12 208.69 323.8 281.54 339.29 281.54 373.12"/><polygon class="cabin-2" points="72.2 373.12 0 373.12 0 339.29 72.2 323.8 72.2 373.12"/><polygon class="cabin-2" points="281.54 755.8 204.85 770.78 204.85 721.47 281.54 721.47 281.54 755.8"/><polygon class="cabin-2" points="72.85 770.78 0 755.8 0 721.47 72.85 721.47 72.85 770.78"/><rect class="cabin-1" x="3.29" y="717.87" width="275.12" height="3.6"/><rect class="cabin-1" x="1.84" y="373.12" width="277.61" height="3.52"/><path class="cabin-5" d="M173.54,323.8q-.12-161.58.39-323.62"/><path class="cabin-5" d="M141.1,323.8c.36-107.72.36-214.72.38-322.77"/><path class="cabin-5" d="M141.1,323.8c.36-107.72.36-214.72.38-322.77"/><path class="cabin-5" d="M109,1.05V7.77l0-6.72Z"/><path class="cabin-5" d="M108.66,323.8l.37-316C108.65,113.08,107.77,218.24,108.66,323.8Z"/><rect class="cabin-3" x="72.2" y="323.8" width="136.49" height="49.32"/><rect class="cabin-2" x="208.34" y="376.64" width="73.2" height="32.13"/><rect class="cabin-2" y="376.64" width="72.2" height="32.13"/><rect class="cabin-2" y="685.74" width="72.85" height="32.13"/><rect class="cabin-2" x="205.23" y="685.74" width="76.32" height="32.13"/><rect class="cabin-3" x="72.2" y="376.64" width="136.15" height="32.13"/></g></g></svg>