<svg xmlns="http://www.w3.org/2000/svg" viewBox="0 0 281.54 1056.32"><defs><style>.cabin-1{fill:#666e7a;}.cabin-2,.cabin-6{fill:#292f35;}.cabin-3{fill:#4e545c;}.cabin-4{fill:#666d79;}.cabin-5{fill:#a0aec4;}.cabin-6{stroke:#292f35;stroke-miterlimit:10;stroke-width:2px;}.cabin-7{fill:none;}</style></defs><title>ElevatorCabin</title><g id="Layer_2" data-name="Layer 2"><g id="Layer_3" data-name="Layer 3"><rect class="cabin-1" x="208.46" y="542.32" width="44" height="278"/><rect class="cabin-1" x="30.46" y="540.32" width="42" height="280"/><path class="cabin-2" d="M100,446.82h80.9A11.23,11.23,0,0,1,192.12,458v0a0,0,0,0,1,0,0H88.77a0,0,0,0,1,0,0v0A11.23,11.23,0,0,1,100,446.82Z"/><rect class="cabin-3" y="542.31" width="30.7" height="280.35"/><rect class="cabin-3" x="250.84" y="540.87" width="30.7" height="280.11"/><rect class="cabin-4" x="269.22" y="615.22" width="12.32" height="74.35"/><circle class="cabin-5" cx="275.38" cy="628.39" r="4.26"/><circle class="cabin-5" cx="275.38" cy="675.21" r="4.26"/><circle class="cabin-5" cx="275.38" cy="644.04" r="4.26"/><circle class="cabin-5" cx="275.38" cy="659.62" r="4.26"/><rect class="cabin-4" x="72.85" y="855.71" width="135.61" height="49.32"/><polygon class="cabin-3" points="281.54 507.36 208.69 507.36 208.69 458.04 281.54 473.53 281.54 507.36"/><polygon class="cabin-3" points="72.2 507.36 0 507.36 0 473.53 72.2 458.04 72.2 507.36"/><polygon class="cabin-3" points="281.54 890.04 208.46 905.02 208.46 855.71 281.54 855.71 281.54 890.04"/><polygon class="cabin-3" points="72.85 905.02 0 890.04 0 855.71 72.85 855.71 72.85 905.02"/><rect class="cabin-2" x="3.29" y="852.11" width="275.12" height="3.6"/><rect class="cabin-2" x="1.84" y="507.36" width="277.61" height="3.52"/><path class="cabin-6" d="M173.54,458c-.08-152.72-.08-304.72.55-458"/><path class="cabin-6" d="M141.1,458c.36-152.72.36-304.72.54-458"/><path class="cabin-6" d="M141.1,458c.36-152.72.36-304.72.54-458"/><path class="cabin-6" d="M108.66,458c-1.2-151.72.8-304.72.54-456.46"/><rect class="cabin-4" x="72.2" y="458.04" width="136.49" height="49.32"/><rect class="cabin-3" x="208.34" y="510.88" width="73.2" height="32.13"/><rect class="cabin-3" y="510.88" width="72.2" height="32.13"/><rect class="cabin-3" x="205.23" y="819.98" width="76.32" height="32.13"/><rect class="cabin-4" x="72.2" y="510.88" width="136.15" height="32.13"/><rect class="cabin-4" x="71.85" y="819.98" width="136.62" height="32.13"/><rect class="cabin-3" y="819.98" width="72.46" height="32.13"/><line class="cabin-7" x1="208.46" y1="543.32" x2="208.46" y2="1056.32"/></g></g></svg>