<svg xmlns="http://www.w3.org/2000/svg" viewBox="0 0 1269 840"><defs><style>.cls-1{fill:#fff;}.cls-2{fill:#7f7f7f;}.cls-3{fill:none;}.cls-12,.cls-3{stroke:#687ba5;stroke-width:3px;}.cls-12,.cls-16,.cls-3{stroke-miterlimit:10;}.cls-4{fill:#f2d988;}.cls-5{fill:#cc6c30;}.cls-6{fill:#a72421;}.cls-7{fill:#c7d32a;}.cls-8{fill:#d37a2a;}.cls-9{fill:#47d32a;}.cls-10{fill:#f4f3f2;}.cls-11{fill:#687ba5;}.cls-12{fill:#fdfeff;}.cls-13{fill:#b8c7d3;}.cls-14{fill:#323e49;}.cls-15{fill:#304556;}.cls-16{fill:#cedbe1;stroke:#7f7f7f;stroke-width:2px;}</style></defs><title>GraphicWall</title><g id="Layer_2" data-name="Layer 2"><g id="Layer_1-2" data-name="Layer 1"><rect class="cls-1" x="736" y="42" width="302" height="341" rx="11"/><path class="cls-2" d="M1027,43a10,10,0,0,1,10,10V372a10,10,0,0,1-10,10H747a10,10,0,0,1-10-10V53a10,10,0,0,1,10-10h280m0-2H747a12,12,0,0,0-12,12V372a12,12,0,0,0,12,12h280a12,12,0,0,0,12-12V53a12,12,0,0,0-12-12Z"/><rect class="cls-1" x="5" y="2" width="602" height="381" rx="11"/><path class="cls-2" d="M596,3a10,10,0,0,1,10,10V372a10,10,0,0,1-10,10H16A10,10,0,0,1,6,372V13A10,10,0,0,1,16,3H596m0-2H16A12,12,0,0,0,4,13V372a12,12,0,0,0,12,12H596a12,12,0,0,0,12-12V13A12,12,0,0,0,596,1Z"/><rect class="cls-1" x="1" y="458" width="602" height="381" rx="11"/><path class="cls-2" d="M592,459a10,10,0,0,1,10,10V828a10,10,0,0,1-10,10H12A10,10,0,0,1,2,828V469a10,10,0,0,1,10-10H592m0-2H12A12,12,0,0,0,0,469V828a12,12,0,0,0,12,12H592a12,12,0,0,0,12-12V469a12,12,0,0,0-12-12Z"/><polyline class="cls-3" points="73.5 297.5 132.5 176.5 165.5 236.5 232.5 99.5 301.5 198.5 325.5 150.5 359.5 198.5"/><path class="cls-3" d="M214,311s39,50,79-8,81-93,88-47,33,80,91,37"/><path class="cls-4" d="M62.14,118.34l-25.28,8.22A26.58,26.58,0,0,1,53.93,93.07a25.19,25.19,0,0,1,8.21-1.3Z"/><path class="cls-5" d="M62.14,118.34l15.62,21.51A26.59,26.59,0,0,1,40.64,134a25.33,25.33,0,0,1-3.78-7.41Z"/><path class="cls-6" d="M62.14,118.34V91.77a26.57,26.57,0,0,1,26.58,26.57,25.78,25.78,0,0,1-11,21.51Z"/><path class="cls-7" d="M138.55,120.72l-15.24,21a25.92,25.92,0,0,1-5.73-36.21,25.12,25.12,0,0,1,21-10.68Z"/><path class="cls-8" d="M138.55,120.72h25.92a25.93,25.93,0,0,1-25.92,25.92,24.81,24.81,0,0,1-15.24-4.95Z"/><path class="cls-9" d="M138.55,120.72V94.8a25.92,25.92,0,0,1,25.92,25.92H138.55Z"/><ellipse class="cls-10" cx="43" cy="28.5" rx="15" ry="15.5"/><ellipse class="cls-10" cx="89" cy="28.5" rx="15" ry="15.5"/><ellipse class="cls-10" cx="138" cy="28.5" rx="15" ry="15.5"/><rect class="cls-1" x="742.5" y="508.5" width="523" height="291"/><path class="cls-2" d="M1262,512V796H746V512h516m7-7H739V803h530V505Z"/><rect class="cls-11" x="780" y="545" width="78" height="28"/><rect class="cls-11" x="871" y="545" width="78" height="28"/><rect class="cls-11" x="847" y="590" width="78" height="28"/><rect class="cls-11" x="870.47" y="545.08" width="78" height="28"/><rect class="cls-11" x="939" y="590" width="78" height="28"/><rect class="cls-11" x="891" y="635" width="78" height="28"/><rect class="cls-11" x="983" y="635" width="78" height="28"/><rect class="cls-11" x="1075" y="635" width="78" height="28"/><rect class="cls-11" x="1167" y="635" width="78" height="28"/><rect class="cls-11" x="761" y="697" width="78" height="28"/><rect class="cls-11" x="916" y="740" width="78" height="28"/><rect class="cls-11" x="1008" y="740" width="78" height="28"/><polyline class="cls-12" points="819 573 819.5 604.5 847 604"/><polyline class="cls-12" points="871 618 871.5 649.5 891 649"/><polyline class="cls-12" points="800 725 800.5 733.5 955.5 733.5 955.5 740"/><rect class="cls-13" x="774" y="99.5" width="40" height="232"/><path class="cls-12" d="M152.8,762.45l95-222,61,165s68,138,146,0,75-147,112-151"/><path class="cls-12" d="M57.5,787.5l95-222,61,165s68,138,146,0,75-147,112-151"/><rect class="cls-13" x="838.73" y="99.3" width="40" height="232"/><rect class="cls-13" x="901" y="102" width="40" height="232"/><rect class="cls-13" x="960" y="102" width="40" height="232"/><rect class="cls-14" x="901" y="218" width="40" height="116"/><rect class="cls-11" x="960" y="203" width="40" height="131"/><rect class="cls-15" x="774" y="218" width="40" height="114"/><rect class="cls-11" x="839" y="203" width="40" height="128"/><path class="cls-16" d="M607,61H5V13C5,6,9.64,1,16.59,1H595.76C602.24,1,607,6.52,607,13Z"/><circle class="cls-1" cx="43" cy="28" r="14"/><circle class="cls-1" cx="89" cy="30" r="14"/><circle class="cls-1" cx="138" cy="30" r="14"/></g></g></svg>