<svg id="a87a104f-2ebd-42d6-abc6-89de6497e131" data-name="Layer 1" xmlns="http://www.w3.org/2000/svg" viewBox="0 0 48 48"><title>icon</title><rect x="0.23" y="-0.04" width="48" height="48" style="fill:none"/><path d="M10.49,5.64H39.34a3,3,0,0,1,3,3V38.47a3,3,0,0,1-3,3H9.51a3,3,0,0,1-3-3V9.62a4,4,0,0,1,4-4" style="fill:#2E2E84"/><path d="M24.43,33.14l1.43-1.32c5.14-4.65,8.52-7.72,8.52-11.48a5.42,5.42,0,0,0-5.47-5.48A6,6,0,0,0,24.43,17,6,6,0,0,0,20,14.86a5.43,5.43,0,0,0-5.48,5.48c0,3.76,3.39,6.83,8.52,11.48Z" style="fill:#F4B350"/></svg>