<svg id="ff6c1a9f-fa4e-4546-82af-7e925e009eeb" data-name="Layer 1" xmlns="http://www.w3.org/2000/svg" viewBox="0 0 48 48"><title>icon</title><rect x="0.04" y="0.04" width="48" height="48" style="fill:none"/><path d="M23.58,14.08A9.87,9.87,0,0,1,28.52,32.5v3a1.65,1.65,0,0,1-1.65,1.64H20.3a1.65,1.65,0,0,1-1.65-1.64v-3a9.87,9.87,0,0,1,4.93-18.42m3.29,24.66v1.65A1.63,1.63,0,0,1,25.23,42H21.94a1.63,1.63,0,0,1-1.64-1.64V38.74h6.57M5.5,22.3,25.23,5.87" style="fill:#2E2E84"/><line x1="23.58" y1="5.87" x2="23.58" y2="10.8" style="fill:none;stroke:#F4B350;stroke-miterlimit:10;stroke-width:3px"/><line x1="10.77" y1="11.16" x2="14.34" y2="14.59" style="fill:none;stroke:#F4B350;stroke-miterlimit:10;stroke-width:3px"/><line x1="36.3" y1="11.07" x2="32.87" y2="14.62" style="fill:none;stroke:#F4B350;stroke-miterlimit:10;stroke-width:3px"/><line x1="5.5" y1="23.95" x2="10.43" y2="23.95" style="fill:none;stroke:#F4B350;stroke-miterlimit:10;stroke-width:3px"/><line x1="36.73" y1="23.95" x2="41.67" y2="23.95" style="fill:none;stroke:#F4B350;stroke-miterlimit:10;stroke-width:3px"/></svg>