<svg id="afac6401-7d81-4d6e-b6fc-ff0098d4da6d" data-name="Layer 1" xmlns="http://www.w3.org/2000/svg" viewBox="0 0 48 48"><title>icon</title><rect y="0.04" width="48" height="48" style="fill:none"/><polyline points="11.65 33.5 14.54 36.39 9.08 41.87 6.17 41.87 6.17 38.96 11.65 33.5" style="fill:#F4B350"/><polyline points="8.73 30.6 11.28 30.95 6.23 35.98 6.23 33.07 8.73 30.6" style="fill:#2C2E84"/><polyline points="17.09 36.76 17.44 39.31 14.97 41.81 12.06 41.81 17.09 36.76" style="fill:#2C2E84"/><path d="M5.77,27,11.85,21l5.43-1.08c6.91-9.4,20.14-14.1,24.92-14.1,0,4.78-4.7,18-14.1,24.92L27,36.12,21,42.2l-1.52-7.58c-3,0-3,0-4.56-1.52s-1.52-1.53-1.52-4.55L5.77,27" style="fill:#2C2E84"/><circle cx="27.65" cy="20.32" r="3.22" style="fill:#F4B350"/></svg>