<svg xmlns="http://www.w3.org/2000/svg" xmlns:xlink="http://www.w3.org/1999/xlink" viewBox="0 0 1385.41 433.69"><defs><style>.cls-1{isolation:isolate;}.cls-2{fill:#abb2b2;stroke:#abb2b2;stroke-miterlimit:10;stroke-width:3px;}.cls-3{fill:#494f4f;}.cls-4{opacity:0.2;}.cls-5{fill:#cceae8;}.cls-6{opacity:0.51;fill:url(#linear-gradient);}.cls-6,.cls-7,.cls-8{mix-blend-mode:screen;}.cls-7{opacity:0.7;fill:url(#linear-gradient-2);}.cls-8{opacity:0.49;}.cls-9{fill:#fff;}.cls-10{fill:none;stroke:#717171;stroke-miterlimit:1;stroke-width:0.59px;}.cls-11{opacity:0.58;}</style><linearGradient id="linear-gradient" x1="692.7" y1="433" x2="692.7" y2="208" gradientUnits="userSpaceOnUse"><stop offset="0" stop-color="#0e0e0e"/><stop offset="0.5"/><stop offset="0.52" stop-color="#010101"/><stop offset="0.73" stop-color="#0b0b0b"/><stop offset="1" stop-color="#0e0e0e"/></linearGradient><linearGradient id="linear-gradient-2" x1="692.7" y1="208" x2="692.7" y2="433" gradientUnits="userSpaceOnUse"><stop offset="0" stop-color="#fff" stop-opacity="0.77"/><stop offset="0.2" stop-color="#fff" stop-opacity="0.65"/><stop offset="0.34" stop-color="#fff" stop-opacity="0.65"/><stop offset="0.35" stop-color="#fff" stop-opacity="0.65"/><stop offset="0.37" stop-color="#fff" stop-opacity="0.62"/><stop offset="0.4" stop-color="#fff" stop-opacity="0.53"/><stop offset="0.43" stop-color="#fff" stop-opacity="0.39"/><stop offset="0.47" stop-color="#fff" stop-opacity="0.2"/><stop offset="0.51" stop-color="#fff" stop-opacity="0"/><stop offset="0.59" stop-color="#7e7e7e" stop-opacity="0.09"/><stop offset="1" stop-color="#1b1b1b" stop-opacity="0.16"/></linearGradient></defs><title>Office-light</title><g class="cls-1"><g id="Layer_2" data-name="Layer 2"><g id="Layer_1-2" data-name="Layer 1"><rect class="cls-2" x="413.7" y="1.5" width="4" height="198"/><rect class="cls-2" x="955.7" y="1.5" width="4" height="198"/><rect class="cls-3" x="233.2" y="191" width="921" height="17"/><g class="cls-4"><polygon class="cls-5" points="233.2 208 0.2 433 1385.2 433 1154.2 208 233.2 208"/><polygon class="cls-6" points="233.2 208 0.2 433 1385.2 433 1154.2 208 233.2 208"/><polygon class="cls-7" points="233.2 208 0.2 433 1385.2 433 1154.2 208 233.2 208"/><g class="cls-8"><path class="cls-9" d="M1.08,433l97.35-94L225.58,216.22c2-1.92,5.13-6.48,7.77-7.5,1.05-.42,3.1,0,4.2,0h890.18c7.8,0,17.19-1.45,24.89,0,1.79.33,1.2.12,2.85,1.37,5,3.81,9.43,9.18,14,13.58L1305.27,356l61.27,59.67,15.5,15.11c.22.21,2.35,1.9,2.29,2.22.14-.82,0-.78-.69-.72-5.24.54-10.82,0-16.08,0H1.08s0,.73,0,.73h1362.4c6.08,0,12.45.56,18.5,0,.77-.07,1.58,0,2.36,0,0,0,0-.68,0-.73l-106.74-104-77.66-75.64-28.64-27.9c-5.16-5-10.12-10.63-15.65-15.25-3.43-2.85-8.68-1.54-13.11-1.54H243.71c-2.81,0-6.41-.61-9.16,0-1.74.39-1.94.71-3.49,2.21l-16.89,16.31-67,64.69L9.44,424.21l-8.36,8.07C1,432.4,1.2,432.9,1.08,433Z"/></g><polygon class="cls-10" points="233.2 208 0.2 433 1385.2 433 1154.2 208 233.2 208"/><g class="cls-11"><path d="M233.2,207.94,154.42,284,28.92,405.21.2,432.94s0,.12,0,.12H1329c17.75,0,36.16,1.42,53.87,0,.77-.06,1.58,0,2.35,0a.48.48,0,0,0,0-.12l-73.78-71.87L1189.93,242.73l-33.33-32.46c-2.88-2.81-3.74-2.33-7.84-2.33H233.2v.12h911.1c4.15,0,8.33-1.09,11.49,1.54,14.23,11.87,27,26.27,40.23,39.19l144.19,140.45,42.6,41.49c1.38,1.35,2.59,1.64,1.73,2.21s-4.32,0-5.39,0H63.4c-20.21,0-40.43-.14-60.64,0A17,17,0,0,0,.24,433c-.29-.75,8.33-8,9-8.66l53.63-51.79L205.5,234.81l27.7-26.75S233.18,208,233.2,207.94Z"/></g></g></g></g></g></svg>