<svg xmlns="http://www.w3.org/2000/svg" viewBox="0 0 367.19 490.87"><defs><style>.questionBoard-1{fill:#c1e4f7;}.questionBoard-2{fill:#c8c8ca;}.questionBoard-3{fill:#e0e4e4;}.questionBoard-4,.cls-5{fill:#fff;}.questionBoard-5,.questionBoard-6{stroke:#c9c8ca;stroke-miterlimit:10;}.questionBoard-5{stroke-width:2px;}.questionBoard-6{fill:none;}.questionBoard-7{fill:#a54624;}.questionBoard-8{fill:#a85a32;}</style></defs><title>QuestionBoard</title><g id="Layer_2" data-name="Layer 2"><g id="Layer_1-2" data-name="Layer 1"><rect class="questionBoard-1" x="8.05" y="44.55" width="359.14" height="446.33" rx="12"/><rect class="questionBoard-2" x="26.44" y="58.34" width="322.99" height="371.26"/><rect class="questionBoard-3" x="17.3" y="73.28" width="324.08" height="371.26"/><polygon class="questionBoard-4" points="321.84 428.45 0 428.45 0 153.17 0 153.17 85.06 67.53 321.84 67.53 321.84 428.45"/><line class="questionBoard-5" x1="85.06" y1="153.17" y2="153.17"/><line class="questionBoard-6" x1="85.06" y1="67.53" x2="85.06" y2="153.17"/><path class="questionBoard-7" d="M283.06,19.35H243.19c0-25.8-88.26-25.8-88.26,0h-39.1a12,12,0,0,0-12,12V84.77a12,12,0,0,0,12,12H283.06a12,12,0,0,0,12-12V31.35A12,12,0,0,0,283.06,19.35ZM199.44,41.81c-16.46,0-29.8-7.63-29.8-17s13.34-17,29.8-17,29.81,7.63,29.81,17S215.91,41.81,199.44,41.81Z"/><rect class="questionBoard-8" x="247.06" y="19.35" width="16.26" height="77.42"/><rect class="questionBoard-8" x="264.86" y="19.35" width="5.23" height="77.42"/></g></g></svg>