<svg id="Layer_1" data-name="Layer 1" xmlns="http://www.w3.org/2000/svg" viewBox="0 0 2477.67 895.45"><defs><style>.cls-1{fill:#fff;}</style></defs><title>showpad-logo-horizontal-white</title><path class="cls-1" d="M1027.63,503.85a84.92,84.92,0,0,0,22.09,19.09,54.75,54.75,0,0,0,28.94,7.76,43.39,43.39,0,0,0,13.88-2.24,34.67,34.67,0,0,0,11.64-6.41,32.87,32.87,0,0,0,7.9-9.85,27.1,27.1,0,0,0,3-12.83q0-11.94-7.31-19.25a68.3,68.3,0,0,0-18.2-12.68q-10.9-5.37-23.43-10.15a118.4,118.4,0,0,1-23-11.63,68.73,68.73,0,0,1-19-18.51q-7.61-11-7.61-27.45a49.79,49.79,0,0,1,4.78-21.49,55.05,55.05,0,0,1,13.28-17.75,62.83,62.83,0,0,1,20-11.94,71.11,71.11,0,0,1,25.22-4.33,82.64,82.64,0,0,1,18.35,1.94,84.07,84.07,0,0,1,15.52,5.08A91.16,91.16,0,0,1,1136,365.08l-17.61,21.79q-17-14.33-37.3-14.33a45,45,0,0,0-12.68,1.79,35.8,35.8,0,0,0-11,5.37,27.85,27.85,0,0,0-7.9,8.81,23.92,23.92,0,0,0-3,12.08,21.17,21.17,0,0,0,7.31,16.42A77,77,0,0,0,1072,428.79q10.89,5.23,23.28,10.3a136.43,136.43,0,0,1,22.52,11.64,78.15,78.15,0,0,1,10.15,8,59.1,59.1,0,0,1,8.66,10.3,50,50,0,0,1,6.11,13.13,55.15,55.15,0,0,1,2.24,16.26,59.68,59.68,0,0,1-5.07,24.92,58,58,0,0,1-13.73,19.1,61.29,61.29,0,0,1-20.44,12.24,73.62,73.62,0,0,1-25.51,4.32,92.47,92.47,0,0,1-40.29-8.95,95.55,95.55,0,0,1-32.83-26Z"/><path class="cls-1" d="M1199.52,428.05a80.3,80.3,0,0,1,16.26-10.15q10.31-5.07,24.92-5.07a63,63,0,0,1,28.8,6.71,65.79,65.79,0,0,1,22.23,18.06,59.35,59.35,0,0,1,10.3,20.14q3.42,11.49,3.43,29.69v68.64h-28.35V485.94q0-13.43-2.24-20.59a35.54,35.54,0,0,0-6.12-11.94,37,37,0,0,0-12.68-10,36.42,36.42,0,0,0-16.26-3.73q-14,0-24,6.11a62.65,62.65,0,0,0-16.26,13.88v96.39h-28.35V344.19h28.35Z"/><path class="cls-1" d="M1327.18,485.94A75.27,75.27,0,0,1,1332.7,457a71.41,71.41,0,0,1,15.22-23.27,68.88,68.88,0,0,1,23-15.37,77.86,77.86,0,0,1,57.59,0,69.08,69.08,0,0,1,23,15.37A71.73,71.73,0,0,1,1466.69,457a79.07,79.07,0,0,1,0,58,72.14,72.14,0,0,1-15.22,23.12,69.08,69.08,0,0,1-23,15.37,77.86,77.86,0,0,1-57.59,0,68.88,68.88,0,0,1-23-15.37A71.82,71.82,0,0,1,1332.7,515,74.87,74.87,0,0,1,1327.18,485.94Zm28.35,0a49.68,49.68,0,0,0,3.28,18.06,45.59,45.59,0,0,0,9.1,14.77,42,42,0,0,0,13.88,9.84,46.57,46.57,0,0,0,35.81,0,41.85,41.85,0,0,0,13.87-9.84,45.78,45.78,0,0,0,9.11-14.77,51.33,51.33,0,0,0,0-36.11,45.67,45.67,0,0,0-9.11-14.77,41.87,41.87,0,0,0-13.87-9.85,46.57,46.57,0,0,0-35.81,0,42,42,0,0,0-13.88,9.85,45.48,45.48,0,0,0-9.1,14.77A49.67,49.67,0,0,0,1355.53,485.94Z"/><path class="cls-1" d="M1600.37,415.81l38.5,95.8,38.5-95.8h29.24l-57,140.26h-19.69l-39.39-98.48-39.4,98.48h-19.69l-57-140.26h29.24l38.5,95.8,38.5-95.8Z"/><path class="cls-1" d="M1756,627.69h-28.35V415.81h27.46v12.83a60.47,60.47,0,0,1,20.74-12.08,72.51,72.51,0,0,1,23.12-3.73,69.42,69.42,0,0,1,18.51,2.39,66.13,66.13,0,0,1,15.81,6.56A74.15,74.15,0,0,1,1859.39,448q10,16.72,10,37.9t-9.85,37.75a73.31,73.31,0,0,1-26,26.11,68.05,68.05,0,0,1-16.41,6.72,71.28,71.28,0,0,1-18.8,2.53q-24.78,0-42.38-15.22Zm0-115.49A49.67,49.67,0,0,0,1773.45,527a46.57,46.57,0,0,0,39.69,1.49,47.67,47.67,0,0,0,14.77-10,44.23,44.23,0,0,0,9.7-14.62,46.82,46.82,0,0,0,3.43-17.91,48.18,48.18,0,0,0-12.38-32.38,42,42,0,0,0-14.18-10.14,44.83,44.83,0,0,0-18.5-3.73,47.15,47.15,0,0,0-23.13,5.67A52.81,52.81,0,0,0,1756,459.68Z"/><path class="cls-1" d="M2003.89,543.24a60.13,60.13,0,0,1-19.7,11.78,68.14,68.14,0,0,1-23.57,4,71.17,71.17,0,0,1-18.8-2.53,68.13,68.13,0,0,1-16.42-6.72,73.39,73.39,0,0,1-26-26.11q-9.84-16.56-9.85-37.75t10-37.9a74.23,74.23,0,0,1,26.11-26.26,66.38,66.38,0,0,1,15.82-6.56,69.34,69.34,0,0,1,18.5-2.39,72.62,72.62,0,0,1,23.13,3.73,60.56,60.56,0,0,1,20.74,12.08V415.81h27.45V556.07h-27.45Zm-.9-83.56a52.7,52.7,0,0,0-16.86-14.32,47.12,47.12,0,0,0-23.13-5.67,44.83,44.83,0,0,0-18.5,3.73,41.94,41.94,0,0,0-14.17,10.14,48.25,48.25,0,0,0-12.39,32.38,46.82,46.82,0,0,0,3.43,17.91,44.38,44.38,0,0,0,9.7,14.62,47.71,47.71,0,0,0,14.78,10,46.57,46.57,0,0,0,39.69-1.49A49.55,49.55,0,0,0,2003,512.2Z"/><path class="cls-1" d="M2169.3,543.24A60.13,60.13,0,0,1,2149.6,555a68.15,68.15,0,0,1-23.58,4,71.15,71.15,0,0,1-18.79-2.53,68.13,68.13,0,0,1-16.42-6.72,73.31,73.31,0,0,1-26-26.11q-9.85-16.56-9.85-37.75t10-37.9a74.23,74.23,0,0,1,26.11-26.26,66.21,66.21,0,0,1,15.82-6.56,70.66,70.66,0,0,1,40.88,1.34,66.17,66.17,0,0,1,20.59,11.49V344.19h28.35V556.07H2169.3Zm-.9-83.56a52.81,52.81,0,0,0-16.86-14.32,47.12,47.12,0,0,0-23.13-5.67,44.83,44.83,0,0,0-18.5,3.73,41.94,41.94,0,0,0-14.17,10.14,48.25,48.25,0,0,0-12.39,32.38,46.64,46.64,0,0,0,3.44,17.91,44.2,44.2,0,0,0,9.69,14.62,47.67,47.67,0,0,0,14.77,10,46.57,46.57,0,0,0,39.69-1.49,49.49,49.49,0,0,0,17.46-14.77Z"/><path class="cls-1" d="M878.5,449.41q0-3.48-.18-6.93c0-.36-.06-.71-.08-1.07-.11-2-.25-4-.45-5.94l0-.24A137.32,137.32,0,0,0,755.43,312.89l-.25,0c-2-.2-4-.34-5.95-.45l-1.06-.08q-3.45-.18-6.93-.18h-.06a136.45,136.45,0,0,0-97.1,40.22l-46.45,46.45,33.91,33.92L665.32,399l-.15-.15,12.68-12.67a89,89,0,0,1,63.33-26.24h.05c1.52,0,3,0,4.51.11l.7.05c1.29.08,2.59.17,3.87.3l.19,0a89.72,89.72,0,0,1,79.75,79.74,1.5,1.5,0,0,1,0,.2c.13,1.28.22,2.57.3,3.86,0,.24,0,.47,0,.71.07,1.49.11,3,.11,4.5,0,0,0,0,0,.06,0,1.53,0,3-.12,4.57,0,.2,0,.4,0,.6-.08,1.33-.17,2.65-.31,4,0,0,0,.07,0,.1a89.72,89.72,0,0,1-49.71,71.18l-.85.42c-.82.39-1.65.76-2.48,1.13-.61.26-1.21.53-1.82.78s-1,.42-1.58.63c-.93.36-1.86.72-2.8,1l-.63.22a89.66,89.66,0,0,1-92.54-21.32l-12.52-12.52v0l-84.58-84.58h0L445.79,280.76,412,314.53l-135.1,135.1L310.7,483.4,445.79,618.49l33.77-33.77L564,500.29l-33.78-33.78L445.79,551,344.47,449.63,445.79,348.31,496.45,399h0L631.54,534.06h0l12.52,12.52a136.88,136.88,0,0,0,97.1,40.15h0v.07a136.9,136.9,0,0,0,44.68-7.5c.37-.13.75-.25,1.12-.39,1.4-.49,2.78-1,4.16-1.56.85-.33,1.71-.66,2.57-1s1.76-.75,2.63-1.14c1.33-.58,2.64-1.16,3.95-1.79.39-.18.77-.38,1.16-.57a137.12,137.12,0,0,0,76.32-109.21s0-.09,0-.13q.3-3,.46-6.06c0-.32,0-.63.07-.95.12-2.32.18-4.66.18-7h0Z"/></svg>