<svg xmlns="http://www.w3.org/2000/svg" viewBox="0 0 705 320"><defs><style>.browserS-1{fill:#2c2e84;}.browserS-2{fill:#010070;}.browserS-3{fill:#00ba8d;}.browserS-4{fill:#d8f4e8;}.browserS-5{fill:#ee504a;}.browserS-6{fill:#5ecb43;}.browserS-7{fill:#f8bd45;}.browserS-8{fill:#fff;}</style></defs><title>ShowpadScreen</title><g id="Layer_2" data-name="Layer 2"><g id="Layer_1-2" data-name="Layer 1"><path class="browserS-1" d="M.5,319.5V10A9.51,9.51,0,0,1,10,.5H695a9.51,9.51,0,0,1,9.5,9.5V319.5Z"/><path class="browserS-2" d="M695,1a9,9,0,0,1,9,9V319H1V10a9,9,0,0,1,9-9H695m0-1H10A10,10,0,0,0,0,10V320H705V10A10,10,0,0,0,695,0Z"/><rect class="browserS-3" y="23" width="705" height="22"/><rect class="browserS-4" y="45" width="705" height="275"/><circle class="browserS-5" cx="12" cy="10" r="4"/><circle class="browserS-6" cx="42" cy="10" r="4"/><circle class="browserS-7" cx="27" cy="10" r="4"/><path class="browserS-3" d="M172,28,167.84,9.72C167.34,7.51,165.78,6,164,6H76.79C75.11,6,73.61,7.35,73,9.38L67.73,28"/><path class="browserS-8" d="M108.87,24.37a4,4,0,0,0,1,.9,2.59,2.59,0,0,0,1.36.36,2.05,2.05,0,0,0,.65-.1,2,2,0,0,0,.55-.3,1.71,1.71,0,0,0,.37-.47,1.36,1.36,0,0,0,.14-.6,1.22,1.22,0,0,0-.35-.9,3.16,3.16,0,0,0-.85-.59c-.34-.17-.71-.33-1.1-.48a5.45,5.45,0,0,1-1.08-.54,3.35,3.35,0,0,1-.89-.87,2.5,2.5,0,0,1-.13-2.3,2.66,2.66,0,0,1,.62-.83,3.12,3.12,0,0,1,2.12-.76,4.12,4.12,0,0,1,.86.09,3.12,3.12,0,0,1,.73.24,4.09,4.09,0,0,1,1,.65l-.83,1a2.63,2.63,0,0,0-1.75-.67,2.33,2.33,0,0,0-.59.08,1.92,1.92,0,0,0-.52.25,1.25,1.25,0,0,0-.37.42,1.19,1.19,0,0,0-.14.56,1,1,0,0,0,.34.77,3.4,3.4,0,0,0,.86.55c.34.17.7.33,1.09.49a6.5,6.5,0,0,1,1,.54,3.48,3.48,0,0,1,.48.38,2.73,2.73,0,0,1,.41.48,2.31,2.31,0,0,1,.28.62,2.74,2.74,0,0,1,.11.76,3,3,0,0,1-.24,1.17,2.7,2.7,0,0,1-.64.89,3,3,0,0,1-1,.58,3.78,3.78,0,0,1-1.2.2,4.42,4.42,0,0,1-1.89-.42,4.55,4.55,0,0,1-1.54-1.22Z"/><path class="browserS-8" d="M116.92,20.82a3.82,3.82,0,0,1,.77-.48,2.74,2.74,0,0,1,1.17-.23,2.9,2.9,0,0,1,1.35.31,3,3,0,0,1,1,.85,2.79,2.79,0,0,1,.48.94,4.87,4.87,0,0,1,.16,1.39v3.22h-1.33V23.53a3.38,3.38,0,0,0-.1-1,1.76,1.76,0,0,0-.29-.56,1.68,1.68,0,0,0-.59-.47,1.71,1.71,0,0,0-.77-.18,2.12,2.12,0,0,0-1.12.29,2.79,2.79,0,0,0-.76.65v4.52H115.6V16.89h1.33Z"/><path class="browserS-8" d="M122.91,23.53a3.49,3.49,0,0,1,.26-1.35,3.16,3.16,0,0,1,.71-1.09,3.25,3.25,0,0,1,1.08-.72,3.6,3.6,0,0,1,2.7,0,3.25,3.25,0,0,1,1.08.72,3.31,3.31,0,0,1,.71,1.09,3.75,3.75,0,0,1,0,2.72,3.55,3.55,0,0,1-.71,1.08,3.25,3.25,0,0,1-1.08.72,3.6,3.6,0,0,1-2.7,0,3.15,3.15,0,0,1-1.08-.72,3.22,3.22,0,0,1-.71-1.08A3.41,3.41,0,0,1,122.91,23.53Zm1.33,0a2.45,2.45,0,0,0,.15.85,2.06,2.06,0,0,0,.43.69,1.75,1.75,0,0,0,.65.46,2.13,2.13,0,0,0,1.68,0,1.84,1.84,0,0,0,.65-.46,2.23,2.23,0,0,0,.43-.69,2.46,2.46,0,0,0,0-1.69,2.23,2.23,0,0,0-.43-.69,2,2,0,0,0-.65-.47,2.22,2.22,0,0,0-1.68,0,1.9,1.9,0,0,0-.65.47,2.06,2.06,0,0,0-.43.69A2.4,2.4,0,0,0,124.24,23.53Z"/><path class="browserS-8" d="M135.72,20.25l1.8,4.49,1.81-4.49h1.37L138,26.82h-.92l-1.85-4.62-1.84,4.62h-.93l-2.67-6.57h1.37L133,24.74l1.8-4.49Z"/><path class="browserS-8" d="M143,30.18h-1.33V20.25H143v.6a2.79,2.79,0,0,1,1-.57,3.36,3.36,0,0,1,1.09-.17,2.78,2.78,0,0,1,.86.11,3,3,0,0,1,.75.31,3.56,3.56,0,0,1,1.22,1.22,3.62,3.62,0,0,1,0,3.55,3.51,3.51,0,0,1-1.22,1.23,3.45,3.45,0,0,1-.77.31A3.33,3.33,0,0,1,145,27a3,3,0,0,1-2-.71Zm0-5.42a2.4,2.4,0,0,0,.82.7,2.2,2.2,0,0,0,1.86.07,2.17,2.17,0,0,0,.69-.47,2.14,2.14,0,0,0,.46-.69,2.17,2.17,0,0,0,.16-.84,2.26,2.26,0,0,0-.58-1.51,1.88,1.88,0,0,0-.67-.48,2,2,0,0,0-.86-.17,2.17,2.17,0,0,0-1.09.26,2.68,2.68,0,0,0-.79.67Z"/><path class="browserS-8" d="M154.63,26.22a2.78,2.78,0,0,1-.92.55,3.2,3.2,0,0,1-1.11.19,3.33,3.33,0,0,1-.88-.12,3.65,3.65,0,0,1-.77-.31,3.42,3.42,0,0,1-1.68-3,3.39,3.39,0,0,1,.47-1.77A3.48,3.48,0,0,1,151,20.52a3.19,3.19,0,0,1,.74-.3,3.13,3.13,0,0,1,.86-.12,3.37,3.37,0,0,1,1.09.18,2.65,2.65,0,0,1,1,.57v-.6h1.29v6.57h-1.29Zm0-3.92a2.56,2.56,0,0,0-.79-.67,2.16,2.16,0,0,0-1.08-.26,2,2,0,0,0-1.54.65,2.26,2.26,0,0,0-.58,1.51,2.37,2.37,0,0,0,.16.84,2.14,2.14,0,0,0,.46.69,2.17,2.17,0,0,0,.69.47,2.2,2.2,0,0,0,1.86-.07,2.22,2.22,0,0,0,.82-.7Z"/><path class="browserS-8" d="M162.39,26.22a2.83,2.83,0,0,1-.93.55,3.14,3.14,0,0,1-1.1.19,3.22,3.22,0,0,1-.88-.12,3.06,3.06,0,0,1-.77-.32,3.25,3.25,0,0,1-1.22-1.22,3.62,3.62,0,0,1,0-3.55,3.42,3.42,0,0,1,1.22-1.23,3.19,3.19,0,0,1,.74-.3,3.31,3.31,0,0,1,1.92.06,2.94,2.94,0,0,1,1,.54V16.89h1.33v9.93h-1.28Zm0-3.92a2.72,2.72,0,0,0-.8-.67,2.13,2.13,0,0,0-1.08-.26,2,2,0,0,0-.87.17,1.84,1.84,0,0,0-.66.48,2.21,2.21,0,0,0-.58,1.51,2.17,2.17,0,0,0,.16.84,2.11,2.11,0,0,0,.45.69,2.2,2.2,0,0,0,2.56.4,2.48,2.48,0,0,0,.82-.69Z"/><path class="browserS-8" d="M101.88,21.82c0-.11,0-.22,0-.32a.43.43,0,0,0,0-.05,2.46,2.46,0,0,0,0-.28h0a6.44,6.44,0,0,0-5.73-5.74h0l-.27,0h-.38a6.36,6.36,0,0,0-4.55,1.88l-2.18,2.18L90.3,21l1.58-1.58h0l.6-.59a4.13,4.13,0,0,1,3-1.23h.24l.19,0h0a4.2,4.2,0,0,1,3.74,3.74h0c0,.06,0,.12,0,.18v.24h0v.25c0,.06,0,.12,0,.18h0a4.21,4.21,0,0,1-2.33,3.34l0,0-.11.05-.09,0-.07,0-.13.05h0a4.2,4.2,0,0,1-4.34-1l-.59-.59h0l-4-4h0l-6.33-6.33L80,15.5l-6.34,6.33,1.59,1.58,6.33,6.34,1.58-1.59,4-3.95-1.58-1.59-4,4-4.75-4.75,4.75-4.75L84,19.46h0l6.34,6.33h0l.58.59a6.48,6.48,0,0,0,4.56,1.88h0a6.46,6.46,0,0,0,2.09-.35l0,0,.2-.07.12-.05.12-.05.19-.09.05,0a6.44,6.44,0,0,0,3.58-5.12h0a2.64,2.64,0,0,0,0-.28v-.05c0-.11,0-.21,0-.32h0Z"/></g></g></svg>