<svg xmlns="http://www.w3.org/2000/svg" viewBox="0 0 737 793"><defs><style>.cls-1{fill:#f9f9f9;}.cls-2{fill:#858889;}.cls-3{fill:#217189;}.cls-4{opacity:0.8;}.cls-5{fill:#dcf0fa;}.cls-6{fill:#ebf9fb;}</style></defs><title>Window</title><g id="Layer_2" data-name="Layer 2"><g id="Layer_1-2" data-name="Layer 1"><rect class="cls-1" x="47" y="3" width="643" height="781"/><path class="cls-2" d="M687,6V781H50V6H687m6-6H44V787H693V0Z"/><rect class="cls-3" y="781" width="737" height="12"/><g class="cls-4"><rect class="cls-5" x="76" y="34" width="277" height="723"/><path class="cls-3" d="M350,37V754H79V37H350m6-6H73V760H356V31Z"/></g><polyline class="cls-6" points="85.36 537.54 347.35 288.92 347.35 412.28 85.36 659"/><polyline class="cls-6" points="82.89 220.67 248.16 42 344.88 42 344.88 159.93 82.89 420"/><g class="cls-4"><rect class="cls-5" x="384.53" y="33.57" width="277" height="723"/><path class="cls-3" d="M658.53,36.57v717h-271v-717h271m6-6h-283v729h283v-729Z"/></g><polyline class="cls-6" points="393.89 537.11 655.88 288.5 655.88 411.86 393.89 658.57"/><polyline class="cls-6" points="391.42 220.25 556.69 41.57 653.41 41.57 653.41 159.5 391.42 419.57"/></g></g></svg>