<svg xmlns="http://www.w3.org/2000/svg" viewBox="0 0 281.54 2128.71"><defs><style>.cls-1{fill:#a09593;}.cls-2,.cls-6{fill:#292f35;}.cls-3{fill:#4e545c;}.cls-4{fill:#666d79;}.cls-5{fill:#a0aec4;}.cls-6{stroke:#292f35;stroke-miterlimit:10;stroke-width:2px;}</style></defs><title>Asset 16</title><g id="Layer_2" data-name="Layer 2"><g id="Layer_3" data-name="Layer 3"><rect class="cls-1" x="140.46" y="1767" width="113" height="277"/><rect class="cls-1" x="30.46" y="1767" width="110" height="277"/><path class="cls-2" d="M100,1670.5h80.9a11.23,11.23,0,0,1,11.23,11.23v0a0,0,0,0,1,0,0H88.77a0,0,0,0,1,0,0v0A11.23,11.23,0,0,1,100,1670.5Z"/><rect class="cls-3" y="1765.99" width="30.7" height="280.35"/><rect class="cls-3" x="250.84" y="1764.56" width="30.7" height="280.11"/><rect class="cls-4" x="269.22" y="1838.9" width="12.32" height="74.35"/><circle class="cls-5" cx="275.38" cy="1852.07" r="4.26"/><circle class="cls-5" cx="275.38" cy="1898.89" r="4.26"/><circle class="cls-5" cx="275.38" cy="1867.72" r="4.26"/><circle class="cls-5" cx="275.38" cy="1883.31" r="4.26"/><rect class="cls-4" x="71.85" y="2043.66" width="133.38" height="32.13"/><rect class="cls-4" x="72.85" y="2079.39" width="132" height="49.32"/><polygon class="cls-3" points="281.54 1731.05 208.69 1731.05 208.69 1681.73 281.54 1697.21 281.54 1731.05"/><polygon class="cls-3" points="72.2 1731.05 0 1731.05 0 1697.21 72.2 1681.73 72.2 1731.05"/><polygon class="cls-3" points="281.54 2113.73 204.85 2128.71 204.85 2079.39 281.54 2079.39 281.54 2113.73"/><polygon class="cls-3" points="72.85 2128.71 0 2113.73 0 2079.39 72.85 2079.39 72.85 2128.71"/><rect class="cls-2" x="3.29" y="2075.79" width="275.12" height="3.6"/><rect class="cls-2" x="1.84" y="1731.05" width="277.61" height="3.52"/><path class="cls-6" d="M173.54,1681.73,175.54,0Z"/><path class="cls-6" d="M141.1,1681.73,143.1,0Z"/><path class="cls-6" d="M141.1,1681.73,143.1,0Z"/><path class="cls-6" d="M108.66,1681.73,110.66,0Z"/><rect class="cls-4" x="72.2" y="1681.73" width="136.49" height="49.32"/><rect class="cls-3" x="208.34" y="1734.57" width="73.2" height="32.13"/><rect class="cls-3" y="1734.57" width="72.2" height="32.13"/><rect class="cls-3" y="2043.66" width="72.85" height="32.13"/><rect class="cls-3" x="205.23" y="2043.66" width="76.32" height="32.13"/><rect class="cls-4" x="72.2" y="1734.57" width="136.15" height="32.13"/></g></g></svg>