<svg xmlns="http://www.w3.org/2000/svg" viewBox="0 0 150 99.41"><defs><style>.cls-1{fill:#f4b350;}.cls-2{fill:#cc9644;}.cls-3{fill:#474dc9;}.cls-4{fill:#2d2e83;}.cls-5,.cls-7{fill:none;stroke-miterlimit:10;}.cls-5{stroke:#2d2e83;stroke-linecap:round;stroke-width:3px;}.cls-6{fill:tomato;}.cls-7{stroke:tomato;stroke-width:0.5px;}.cls-8{fill:#eeeff1;}.cls-9{fill:#dee2e6;}</style></defs><title>h&amp;amp;g</title><g id="Layer_2" data-name="Layer 2"><g id="Layer_1-2" data-name="Layer 1"><rect class="cls-1" x="121.92" y="29.14" width="13.21" height="32.57" transform="translate(257.05 90.85) rotate(-180)"/><path class="cls-2" d="M102,75.07V85.24S95.82,82,79,86.47l-12.31,3L65.46,94l43.37-1.45v-20Z"/><polygon class="cls-3" points="143.13 50.47 143.13 90.03 108.83 92.51 108.18 86.42 133.42 46.68 143.13 50.47"/><rect class="cls-1" x="107.5" y="7.24" width="27.63" height="32.8" rx="13.81" transform="translate(242.63 47.27) rotate(180)"/><circle class="cls-3" cx="144.14" cy="58.56" r="5.86"/><path class="cls-1" d="M150,58.56h0a0,0,0,0,1,0,0V95.41a0,0,0,0,1,0,0H138.29a0,0,0,0,1,0,0V70.27A11.71,11.71,0,0,1,150,58.56Z" transform="translate(288.29 153.97) rotate(180)"/><path class="cls-1" d="M142.3,86.28s1.38-5.81-27.13,4.43l-11.76-3.46L95,95.41h46.78Z"/><rect class="cls-3" x="138.29" y="58.56" width="11.71" height="7.35" transform="translate(288.29 124.46) rotate(-180)"/><path class="cls-3" d="M121.92,46.14s-5.46,3.94-8,4.85C102.38,55,102,58.6,102,62.2V75.07h4.84s1.31,7.57,1.88,13.75L132.2,74.65V43.79Z"/><path class="cls-1" d="M119.32,39.8h0a11.14,11.14,0,0,1-11.14-11.14V18.14a11.12,11.12,0,0,1,4-8.52"/><polygon class="cls-4" points="138.29 65.9 132.2 84.64 138.29 84.64 138.29 65.9"/><path class="cls-3" d="M121.92,46.14v-3h13.21S147,52.24,148.34,54.48"/><circle class="cls-5" cx="118.44" cy="21.43" r="4.29"/><circle class="cls-5" cx="106.74" cy="21.43" r="4.29"/><line class="cls-5" x1="114.16" y1="21.43" x2="111.02" y2="21.43"/><path class="cls-4" d="M116.58,11.35c5.46,1.68,8.91-2,11.26,0,1.9,1.62,0,4.32,1.67,9.18,1.15,3.38,4,7.92,6.67,7.72,3.55-.28,7.08-9.16,5.43-16.69-.41-1.83-1.54-7-5.63-9.17C131.57.05,128.2,3.53,122.84.72c0,0-14.17-4.34-11.73,8.3"/><ellipse class="cls-1" cx="131.86" cy="21.64" rx="3.08" ry="5.07"/><path class="cls-4" d="M122.76,5.2s-2.89,7.37-11.05,6.84-6.32-.52-6.32-.52a15.85,15.85,0,0,0,5.86-7.87"/><polygon class="cls-3" points="17.5 51.1 20.12 92.81 51.81 93.14 52.46 87.06 27.22 47.32 17.5 51.1"/><rect class="cls-1" x="29.33" y="7.87" width="23.8" height="32.8" rx="11.9"/><rect class="cls-1" x="28.44" y="35.97" width="10.28" height="26.38"/><circle class="cls-3" cx="16.49" cy="59.19" r="5.86"/><path class="cls-1" d="M15.36,63.12H27.07a0,0,0,0,1,0,0V94.7A5.27,5.27,0,0,1,21.8,100h0a6.44,6.44,0,0,1-6.44-6.44V63.12A0,0,0,0,1,15.36,63.12Z" transform="translate(-20.44 8.3) rotate(-15.05)"/><polygon class="cls-3" points="22.35 66.54 11.12 66.54 10.64 59.19 22.35 59.19 22.35 66.54"/><path class="cls-3" d="M38.72,46.78s5.45,3.94,8.05,4.85c11.48,4,11.84,7.61,11.84,11.2V75.71H53.77s3.08,7.41-1.89,13.75L28.44,75.29V44.43Z"/><path class="cls-4" d="M48.5,10.26c-1.15-1-1.69-1-4-1A5.23,5.23,0,0,0,39.65,14c0,2.49.68,7.84-1,9.55a4.32,4.32,0,0,1-4,1.35c-.72-.1-4,.93-4,4.05s3.53,3.42,3.53,5.71-3.53,5.5-3.53,8.3,4.77,6.75,4.77,11S32.38,61.62,28.34,61s-8.1-7.16-9.76-7.47-5.19-.42-7.06,2.49a4.66,4.66,0,0,0-.83,2.39v2.66s-3.84,1-6.12-1.94-.73-3.53-1.35-5S0,50.93,0,48.23s4.57-6.64,5.09-9.44-3.53-4.46-2.81-8.41S11.94,22,13.6,17.2s.52-12.87,6.23-14.53S45.88,1.11,48.37,1.53s8,3.21,8.41,9-1.25,11.1,4.88,16,4.77,10.59,4.67,10.9-5.4,6.3-5.5,7.66,3.11,2.3,2.28,6.14-5.5,7.89-5.5,7.89-.31-3-10.28-7.26-8.61-5.09-8.61-5.09V40.55s8.7-.31,11.93-7.07C54.91,24.57,48.5,10.26,48.5,10.26Z"/><path class="cls-1" d="M41.32,40.44h0A11.14,11.14,0,0,0,52.46,29.3V18.77a11.11,11.11,0,0,0-4-8.51"/><circle class="cls-6" cx="30.41" cy="29.78" r="4.92"/><path class="cls-7" d="M31.65,34.23s3,4.64,6.72,4.21a37.66,37.66,0,0,0,7.34-1.75"/><path class="cls-6" d="M29.5,27.31a.53.53,0,0,1,0,.13l1.1-.26s-.08-.35-.18-.92c-.59-3.08-2.05-13,2.24-16.1s11.58-2.77,14.24-.83a12.72,12.72,0,0,0-4.61-2.59A15.57,15.57,0,0,0,32,9.24C26.58,13.17,29.16,25.76,29.5,27.31Z"/><path class="cls-6" d="M46.88,35.26c-.57.25-2.1.64-1.7,1.67s2.19.4,2.94-.08,1.63-.93,1.28-1.71C49,34.19,47.6,34.94,46.88,35.26Z"/><polygon class="cls-4" points="21.85 62.35 28.94 79.43 25.74 85.06 21.85 62.35"/><path class="cls-1" d="M41.8,67.12s-6,34.69-18.22,32.05,12-33.1,12-33.1,3.69-17.51,10.84-12.9S49.15,63.83,41.8,67.12Z"/><rect class="cls-8" x="44.59" y="92.51" width="64.24" height="2.91" transform="translate(153.42 187.92) rotate(-180)"/><path class="cls-9" d="M39.16,66.22l5,26.29H88.05L83.2,66.74a3.69,3.69,0,0,0-3.62-3H41.21A2.08,2.08,0,0,0,39.16,66.22Z"/></g></g></svg>