<svg xmlns="http://www.w3.org/2000/svg" viewBox="0 0 409.9 430.84">

  <g class="fw-line">
    <path d="M205,42.49a2.5,2.5,0,0,1-2.5-2.5V2.5a2.5,2.5,0,0,1,5,0V40A2.5,2.5,0,0,1,205,42.49Z"/>
    <path d="M205,110a2.5,2.5,0,0,1-2.5-2.5V70a2.5,2.5,0,0,1,5,0v37.49A2.5,2.5,0,0,1,205,110Z"/>
    <path d="M205,177.47a2.5,2.5,0,0,1-2.5-2.5V137.48a2.5,2.5,0,0,1,5,0V175A2.5,2.5,0,0,1,205,177.47Z"/>
  </g>
  
  <g class="fw-line">
    <path d="M101.9,76a2.51,2.51,0,0,1-2-1l-22-30.33a2.5,2.5,0,1,1,4-2.94l22,30.33a2.51,2.51,0,0,1-2,4Z"/>
    <path d="M141.57,130.59a2.51,2.51,0,0,1-2-1l-22-30.33a2.5,2.5,0,1,1,4-2.94l22,30.33a2.51,2.51,0,0,1-2,4Z"/>
    <path d="M181.23,185.19a2.5,2.5,0,0,1-2-1l-22-30.33a2.5,2.5,0,0,1,4.05-2.94l22,30.33a2.5,2.5,0,0,1-2,4Z"/>
  </g>

  <g class="fw-line">
    <path d="M38.16,163.71a2.27,2.27,0,0,1-.77-.13L1.73,152a2.5,2.5,0,0,1,1.55-4.76l35.65,11.59a2.5,2.5,0,0,1-.77,4.88Z"/>
    <path d="M102.34,184.56a2.63,2.63,0,0,1-.77-.12L65.92,172.86a2.5,2.5,0,1,1,1.54-4.76l35.66,11.58a2.5,2.5,0,0,1-.78,4.88Z"/>
    <path d="M166.53,205.42a2.27,2.27,0,0,1-.77-.13L130.1,193.71a2.5,2.5,0,0,1,1.55-4.76l35.65,11.59a2.5,2.5,0,0,1-.77,4.88Z"/>
  </g>

  <g class="fw-line">
    <path d="M2.5,283.72a2.5,2.5,0,0,1-.77-4.88l35.65-11.59A2.5,2.5,0,0,1,38.93,272L3.27,283.59A2.27,2.27,0,0,1,2.5,283.72Z"/>
    <path d="M66.69,262.86a2.5,2.5,0,0,1-.78-4.88l35.66-11.58a2.5,2.5,0,1,1,1.54,4.75L67.46,262.74A2.63,2.63,0,0,1,66.69,262.86Z"/>
    <path d="M130.87,242a2.5,2.5,0,0,1-.77-4.87l35.65-11.59a2.5,2.5,0,0,1,1.55,4.76l-35.65,11.58A2.64,2.64,0,0,1,130.87,242Z"/>
  </g>

  <g class="fw-line">
    <path d="M79.74,390.18a2.5,2.5,0,0,1-2-4l22-30.33a2.5,2.5,0,1,1,4,2.94l-22,30.33A2.5,2.5,0,0,1,79.74,390.18Z"/>
    <path d="M119.41,335.58a2.5,2.5,0,0,1-2-4l22-30.33a2.5,2.5,0,1,1,4.05,2.94l-22,30.33A2.5,2.5,0,0,1,119.41,335.58Z"/>
    <path d="M159.08,281a2.5,2.5,0,0,1-2-4l22-30.33a2.5,2.5,0,1,1,4,2.94L161.1,280A2.5,2.5,0,0,1,159.08,281Z"/>
  </g>

  <g class="fw-line">
    <path d="M204.89,430.84a2.5,2.5,0,0,1-2.5-2.5V390.85a2.5,2.5,0,0,1,5,0v37.49A2.5,2.5,0,0,1,204.89,430.84Z"/>
    <path d="M204.89,363.35a2.49,2.49,0,0,1-2.5-2.5V323.37a2.5,2.5,0,0,1,5,0v37.48A2.49,2.49,0,0,1,204.89,363.35Z"/>
    <path d="M204.89,295.87a2.5,2.5,0,0,1-2.5-2.5V255.88a2.5,2.5,0,0,1,5,0v37.49A2.5,2.5,0,0,1,204.89,295.87Z"/>
  </g>

  <g class="fw-line">
    <path d="M330.05,390.18a2.47,2.47,0,0,1-2-1l-22-30.33a2.5,2.5,0,0,1,4.05-2.94l22,30.33a2.49,2.49,0,0,1-2,4Z"/>
    <path d="M290.38,335.58a2.47,2.47,0,0,1-2-1l-22-30.33a2.5,2.5,0,0,1,4.05-2.94l22,30.33a2.49,2.49,0,0,1-2,4Z"/>
    <path d="M250.71,281a2.47,2.47,0,0,1-2-1l-22-30.33a2.5,2.5,0,0,1,4-2.94l22,30.33a2.49,2.49,0,0,1-2,4Z"/>
  </g>

  <g class="fw-line">
    <path d="M407.4,283.72a2.63,2.63,0,0,1-.77-.12L371,272a2.5,2.5,0,0,1,1.55-4.76l35.65,11.59a2.49,2.49,0,0,1-.77,4.87Z"/>
    <path d="M343.22,262.87a2.64,2.64,0,0,1-.78-.12l-35.65-11.59a2.5,2.5,0,1,1,1.54-4.75L344,258a2.5,2.5,0,0,1-.77,4.88Z"/>
    <path d="M279,242a2.53,2.53,0,0,1-.77-.12L242.6,230.31a2.5,2.5,0,0,1,1.55-4.76l35.65,11.59A2.49,2.49,0,0,1,279,242Z"/>
  </g>

  <g class="fw-line">
    <path d="M371.71,164.41a2.5,2.5,0,0,1-.77-4.88L406.6,148a2.5,2.5,0,1,1,1.54,4.75l-35.65,11.59A2.64,2.64,0,0,1,371.71,164.41Z"/>
    <path d="M307.53,185.26a2.49,2.49,0,0,1-.77-4.87l35.65-11.59a2.5,2.5,0,0,1,1.55,4.76L308.3,185.14A2.58,2.58,0,0,1,307.53,185.26Z"/>
    <path d="M243.34,206.12a2.5,2.5,0,0,1-.77-4.88l35.66-11.58a2.5,2.5,0,1,1,1.54,4.75L244.12,206A2.64,2.64,0,0,1,243.34,206.12Z"/>
  </g>

  <g class="fw-line">
    <path d="M308,76.69a2.51,2.51,0,0,1-2-4l22-30.33a2.5,2.5,0,1,1,4.05,2.94L310,75.66A2.5,2.5,0,0,1,308,76.69Z"/>
    <path d="M268.32,131.29a2.5,2.5,0,0,1-2-4l22-30.33a2.5,2.5,0,1,1,4.05,2.94l-22,30.32A2.48,2.48,0,0,1,268.32,131.29Z"/>
    <path d="M228.65,185.88a2.49,2.49,0,0,1-2-4l22-30.33a2.5,2.5,0,1,1,4.05,2.94l-22,30.32A2.47,2.47,0,0,1,228.65,185.88Z"/>
  </g>

</svg>