<svg xmlns="http://www.w3.org/2000/svg" viewBox="0 0 123.02 69.25">

  <path style="fill:#2D2E83" d="M123,31.73v2.86h-.13v3.14a28.13,28.13,0,0,1-15.6,22.32H107l-.8.37-.55.24-.31.22-.83.34h-.25a27.11,27.11,0,0,1-9,1.53h-.28a27.76,27.76,0,0,1-19.85-8.21L45,24.28,34.59,13.94,13.88,34.62,34.59,55.34,51.86,38.19l6.89,6.9L41.49,62.32l-6.9,6.93L6.89,41.55,0,34.59,34.59,0l27.7,27.7L79.56,44.9l2.55,2.56A18.29,18.29,0,0,0,95,52.81a18.66,18.66,0,0,0,6-1l.55-.22h.34l.37-.15.59-.37h.18a18.25,18.25,0,0,0,7-5.94,18.06,18.06,0,0,0,3.2-8.59V32.81A18.55,18.55,0,0,0,96.92,16.53H95.16a18.4,18.4,0,0,0-13,5.35l-2.58,2.59-6.89,6.89-7-6.92L75.28,15A27.73,27.73,0,0,1,95,6.71h3a28.18,28.18,0,0,1,25,25Z"/>
  <path style="fill:#2D2E83" d="M123,31.73v2.86h-.13v3.14a28.13,28.13,0,0,1-15.6,22.32H107l-.8.37-.55.24-.31.22-.83.34h-.25a27.11,27.11,0,0,1-9,1.53h-.28a27.76,27.76,0,0,1-19.85-8.21L45,24.28,34.59,13.94,13.88,34.62,34.59,55.34,51.86,38.19l6.89,6.9L41.49,62.32l-6.9,6.93L6.89,41.55,0,34.59,34.59,0l27.7,27.7L79.56,44.9l2.55,2.56A18.29,18.29,0,0,0,95,52.81a18.66,18.66,0,0,0,6-1l.55-.22h.34l.37-.15.59-.37h.18a18.25,18.25,0,0,0,7-5.94,18.06,18.06,0,0,0,3.2-8.59V32.81A18.55,18.55,0,0,0,96.92,16.53H95.16a18.4,18.4,0,0,0-13,5.35l-2.58,2.59-6.89,6.89-7-6.92L75.28,15A27.73,27.73,0,0,1,95,6.71h3a28.18,28.18,0,0,1,25,25Z"/>

</svg>