<svg xmlns="http://www.w3.org/2000/svg" viewBox="0 0 2332.26 1032.86">
  <path d="M92.07,775.77v245.09a12,12,0,0,1-12,12H62a12,12,0,0,1-12-12V775.77Z"/>
  <path d="M2282.26,775.77v245.09a12,12,0,0,1-12,12H2252.2a12,12,0,0,1-12-12V775.77Z"/>
  <path d="M233.7,54V569.74H191.63V54a12,12,0,0,1,12-12H221.7A12,12,0,0,1,233.7,54Z"/>
  <path d="M191.63,775.77H233.7V960.86a12,12,0,0,1-12,12H203.63a12,12,0,0,1-12-12Z"/>
  <path d="M2140.64,54V569.74h-42.07V54a12,12,0,0,1,12-12h18.07A12,12,0,0,1,2140.64,54Z"/>
  <path d="M2140.64,775.77V960.86a12,12,0,0,1-12,12h-18.07a12,12,0,0,1-12-12V775.77Z"/>
  <rect width="2332.26" height="84.06" rx="42.03"/>
  <rect y="119.18" width="2332.26" height="84.06" rx="42.03"/>
  <rect y="238.37" width="2332.26" height="84.06" rx="42.03"/>
  <rect y="357.55" width="2332.26" height="84.06" rx="42.03"/>
  <polygon points="2332.26 644.9 2332.26 775.77 0 775.77 0 644.9 30 569.74 2302.26 569.74 2332.26 644.9"/>
</svg>