<svg xmlns="http://www.w3.org/2000/svg" viewBox="0 0 295.12 295.11">
  <path style="fill:#f1f2f2;stroke:#4370b7;stroke-miterlimit:10;stroke-width:3px;opacity:0.75;" d="M293.62,147.56A146.05,146.05,0,0,1,147.56,293.61c-1.49,0-3,0-4.45-.07A146.05,146.05,0,1,1,293.6,145.31C293.61,146.06,293.62,146.81,293.62,147.56Z"/>
  <polygon style="fill:#fdcd40;" points="177.9 71.36 116.47 71.36 173.18 170.38 234.6 170.38 177.9 71.36"/>
  <polygon style="fill:#f2c03e;" points="234.6 170.38 159.66 146.77 173.18 170.38 234.6 170.38"/>
  <polygon style="fill:#00a25a;" points="59.8 170.26 90.13 223.75 147.42 125.4 116.47 71.36 59.8 170.26"/>
  <polygon style="fill:#00994a;" points="116.47 71.54 133.72 148.67 147.42 125.4 116.47 71.54"/>
  <polygon style="fill:#4370b7;" points="204.82 223.7 235.32 170.38 121.21 170.44 90.13 223.75 204.82 223.7"/>
  <polygon style="fill:#3d68a8;" points="90.13 223.75 147.25 170.42 121.19 170.44 90.13 223.75"/>
</svg>