<svg xmlns="http://www.w3.org/2000/svg" viewBox="0 0 295.12 295.11">
  <path d="M293.62,147.56A146.05,146.05,0,0,1,147.56,293.61c-1.49,0-3,0-4.45-.07A146.05,146.05,0,1,1,293.6,145.31C293.61,146.06,293.62,146.81,293.62,147.56Z" style="fill:#f1f2f2;stroke:#117245;stroke-miterlimit:10;stroke-width:3px;opacity:0.75;"/>
  <path d="M168.05,87.08v7.75h26.06v15.78H168.05v6.72h26.06v15.78H168.05v6.72h26.06v15.78H168.05v6.72h26.06v15.78H168.05v6.72h26.06v15.78H168.05V208h67.32V87.08Zm58.49,113.53H199.37V184.83h27.17Zm0-22.5H199.37V162.33h27.17Zm0-22.5H199.37V139.83h27.17Zm0-22.5H199.37V117.33h27.17Zm0-22.5H199.37V94.83h27.17Z" style="fill:#117245;"/>
  <path d="M59.75,84.93V210.18l103.41,15V69.93ZM121.63,174,111.5,156.19,103.11,172H92.05l13.84-24.9L93.51,124.48H104.3L111.69,139l9-16.56h10.69l-14.21,25L132.76,174Z" style="fill:#117245;"/>
</svg>