<svg xmlns="http://www.w3.org/2000/svg" viewBox="0 0 295.12 295.11">

  <path style="fill:#f1f2f2; opacity: 0.75" d="M293.62,147.56A146.05,146.05,0,0,1,147.56,293.61c-1.49,0-3,0-4.45-.07A146.05,146.05,0,1,1,293.6,145.31C293.61,146.06,293.62,146.81,293.62,147.56Z"/>
  <path style="fill:#4370b7;" d="M147.56,295.11c-1.63,0-3.1,0-4.5-.07A147.56,147.56,0,0,1,0,147.56C0,66.2,66.19,0,147.56,0A147.57,147.57,0,0,1,295.1,145.29v.19c0,.69,0,1.39,0,2.08C295.12,228.92,228.93,295.11,147.56,295.11ZM147.56,3C67.85,3,3,67.85,3,147.56A144.57,144.57,0,0,0,143.15,292c1.37,0,2.81.07,4.41.07,79.71,0,144.56-64.84,144.56-144.55,0-.68,0-1.36,0-2v-.19A144.54,144.54,0,0,0,147.56,3Z"/>
  <path style="fill:#4370b7;" d="M240.27,111.33a43.09,43.09,0,0,0-30.12-16.09,42.63,42.63,0,0,0-20.87,3.13c-.84.36-1.25.29-1.77-.54-6-9.66-14.55-15.74-25.88-17.38-11.59-1.68-21.69,1.74-30.25,9.7a5.66,5.66,0,0,0-.49.49c-.46.53-.76.3-1.17-.12a74.29,74.29,0,0,0-5.87-5.9,40,40,0,0,0-51.39.59,39.85,39.85,0,0,0-10.94,45.28c.26.64.1.95-.46,1.31-9.19,5.92-14.78,14.28-16.05,25.13-1.53,13.15,3,24,13.49,32.2,7.81,6.07,16.8,8,26.54,6.39a1.08,1.08,0,0,1,1.42.77q8.66,19.89,30.12,23c.79.12,1.6.17,2.39.24h3.78c2-.28,3.94-.42,5.86-.86,11.88-2.75,20.43-9.69,25.75-20.63.5-1,.47-1,1.52-.58q18.51,7.5,34.12-4.94a29.35,29.35,0,0,0,6.82-8,1.27,1.27,0,0,1,1.54-.68c15.85,2.42,29.4-2.1,40.35-13.81a42.69,42.69,0,0,0,11.51-26.28A43.71,43.71,0,0,0,240.27,111.33ZM85.88,151.93a9.46,9.46,0,0,1-6.71.63A26.75,26.75,0,0,1,75.1,151c-.57-.23-.68-.67-.49-1.27.7-2.23.67-2.22,2.72-1.2a8.63,8.63,0,0,0,5.4,1A3.33,3.33,0,0,0,84.2,149a1.8,1.8,0,0,0-.14-3,14.09,14.09,0,0,0-2.36-1c-1.31-.5-2.69-.86-3.94-1.46-4.12-2-3.17-7-.72-8.71a7.3,7.3,0,0,1,4.42-1.38,12.93,12.93,0,0,1,5.92,1.26,1,1,0,0,1,.6,1.52c-.67,1.9-.61,1.8-2.49,1.24a22.21,22.21,0,0,0-4.45-.72,2.7,2.7,0,0,0-1.63.61,1.55,1.55,0,0,0,0,2.52,4.26,4.26,0,0,0,1.31.78c1,.4,2,.7,3,1.07a19.23,19.23,0,0,1,2.29,1,4.62,4.62,0,0,1,2.73,4.41A5.23,5.23,0,0,1,85.88,151.93Zm19.53-.09a25.87,25.87,0,0,1-8.67.82,11.25,11.25,0,0,1-1.52-.27c-2.52-.65-4-2.18-4.28-4.47a5.75,5.75,0,0,1,2.86-6.21,10.65,10.65,0,0,1,6.07-1.17c.6,0,1.2.09,1.8.17s.76-.18.78-.72a2.76,2.76,0,0,0-2.47-3.1,10.56,10.56,0,0,0-6,.75c-1.16.46-1.15.49-1.58-.68-.7-1.91-.63-2.08,1.34-2.71a15.28,15.28,0,0,1,7.2-.65,5.75,5.75,0,0,1,5.26,5.9c.06,1.83,0,3.66,0,5.49h0c0,1.89,0,3.78,0,5.67C106.27,151.29,106.08,151.7,105.41,151.84ZM114,139.27V151c0,1.23-.09,1.32-1.33,1.32-2.78,0-2.49.27-2.49-2.48q0-11.12,0-22.24c0-1.4,0-1.44,1.46-1.44,2.6,0,2.35-.25,2.36,2.35C114,132.11,114,135.69,114,139.27Zm19.82,4c0,.68-.51.81-1.09.8H122.59c-.94,0-1.11.23-1,1.15a4.56,4.56,0,0,0,4.6,4.16,12.23,12.23,0,0,0,5.16-.64c.59-.23.89-.05,1.12.52.89,2.21.78,2.49-1.52,3a16.22,16.22,0,0,1-6.32.28,7.91,7.91,0,0,1-7-6.85,12.76,12.76,0,0,1,.8-7.66c2.33-5.09,9.6-6.34,13.39-2.26C133.75,137.93,134,140.57,133.82,143.3Zm4.48,8.47-.16-.08c-2.12-1-2.14-1-1.29-3.18.36-.88.56-1,1.41-.44a9.8,9.8,0,0,0,4.76,1.58,7,7,0,0,0,2.19-.25,1.91,1.91,0,0,0,1.46-1.82,1.76,1.76,0,0,0-1.17-1.83c-1.05-.45-2.15-.77-3.21-1.18a21.67,21.67,0,0,1-3.1-1.27,5,5,0,0,1-1.18-7.71c1.34-1.51,3.08-2.18,5.66-2.18a12.16,12.16,0,0,1,5.55,1.29,1,1,0,0,1,.57,1.45c-.69,1.92-.63,1.82-2.54,1.27a23.73,23.73,0,0,0-4.37-.72,2.49,2.49,0,0,0-1.45.42,1.67,1.67,0,0,0-.1,2.86,11.46,11.46,0,0,0,2.09,1c1.41.56,2.86,1,4.24,1.64a4.52,4.52,0,0,1,2.83,4.59,5.06,5.06,0,0,1-3,4.81C144.4,153.42,141.33,153,138.3,151.77Zm22.64-18.52a.83.83,0,0,0,.61.5c.8.06,1.6,0,2.4,0s1,.36.9,1.09a.19.19,0,0,0,0,.08c-.28,2.09-.28,2.08-2.37,2.09-2.65,0-2.21-.25-2.66,2.21-.78,4.34-1.49,8.7-2.33,13a25.33,25.33,0,0,1-1.39,4.77,6.84,6.84,0,0,1-8.75,3.52c-.45-.18-.65-.44-.49-.92,0-.1.07-.22.11-.32.24-.58.32-1.38.76-1.68s1.16-.05,1.77,0a2.73,2.73,0,0,0,3.07-1.83,27.5,27.5,0,0,0,1.22-4.46c.83-4.33,1.57-8.68,2.35-13,.2-1.18.14-1.25-1-1.27-1.87,0-1.87,0-1.52-1.91.24-1.28.32-1.34,1.62-1.36h.34c1.32,0,1.31,0,1.59-1.27a14.38,14.38,0,0,1,.49-1.82c1.17-3.37,3.28-4.85,6.86-4.93.76.1,1.53.18,2.29.32a.68.68,0,0,1,.57,1c-.06.16-.12.33-.17.49-.59,1.64-.59,1.64-2.3,1.54A3.68,3.68,0,0,0,160.94,133.25Zm21,13.68a7.91,7.91,0,0,1-8.47,5.82c-5-.38-7.87-3.39-8.19-8.82a10.57,10.57,0,0,1,1.94-7.4c2.13-2.7,5-3.45,8.31-2.93a7.44,7.44,0,0,1,6.24,5.23,32,32,0,0,1,.87,4.15A39.68,39.68,0,0,1,181.94,146.93Zm14.62-12a2.34,2.34,0,0,0-.09.24c-.67,2-.67,2-2.71,2a3.79,3.79,0,0,0-3.88,3.25,24.38,24.38,0,0,0-.33,4c-.06,2.23,0,4.47,0,6.7,0,1.07-.14,1.19-1.19,1.21-.49,0-1,0-1.46,0-1.06,0-1.17-.13-1.17-1.22q0-8,0-16.07c0-1.14.12-1.25,1.3-1.27h.68c1.52,0,1.52,0,1.95,1.45a20.85,20.85,0,0,1,1.83-1.06,6.78,6.78,0,0,1,4.55-.28C196.6,134,196.77,134.37,196.56,134.91Zm14,17.28c-1.28.29-2.59.45-3.88.67l0-.12c-.71,0-1.43,0-2.14-.15a7.75,7.75,0,0,1-6.81-6.25,12.36,12.36,0,0,1,.26-7.2,8,8,0,0,1,6.45-5.53,13.89,13.89,0,0,1,6.37.41c.67.19.91.55.6,1.2l0,.08c-.65,2-.65,1.91-2.69,1.65a14.5,14.5,0,0,0-3.09-.06,3.94,3.94,0,0,0-3.31,2.28,8.65,8.65,0,0,0-.23,7.48,4.46,4.46,0,0,0,4.33,2.72,17.27,17.27,0,0,0,3.56-.4c.64-.13,1,0,1.17.6.11.33.24.65.35,1C211.88,151.73,211.83,151.9,210.58,152.19Zm18.77-8.89c0,.68-.51.8-1.08.8H218.13c-1,0-1.12.14-1,1.1a4.5,4.5,0,0,0,4.53,4.2,12.1,12.1,0,0,0,5.17-.61c.6-.23,1-.1,1.18.54.06.19.13.38.2.57.6,1.64.56,1.76-1.15,2.25a15.24,15.24,0,0,1-7.73.27c-3.8-.86-6-3.67-6.41-8a12.35,12.35,0,0,1,.76-5.74,7.83,7.83,0,0,1,7.09-5.16c3.1-.26,5.73.68,7.41,3.49A10.56,10.56,0,0,1,229.35,143.3Z"/>
  <path style="fill:#4370b7;" d="M102.45,146.61h0v.86c0,1.82,0,1.9-1.78,2a16.34,16.34,0,0,1-3.83-.11,2.4,2.4,0,0,1-2.11-2.46,2.75,2.75,0,0,1,1.75-2.87,9.58,9.58,0,0,1,5.41-.24c.21,0,.49.46.52.73A17.67,17.67,0,0,1,102.45,146.61Z"/>
  <path style="fill:#4370b7;" d="M225.45,140.47c0,.56-.26.69-.73.69h-3.35c-1.09,0-2.18,0-3.27,0-.72,0-1-.27-.8-1A4.11,4.11,0,0,1,222,136.7,3.91,3.91,0,0,1,225.45,140.47Z"/>
  <path style="fill:#4370b7;" d="M129.18,141.15h-6.77c-.41,0-.73-.06-.7-.61a4.49,4.49,0,0,1,2.65-3.62,4,4,0,0,1,4.53,1.05,8,8,0,0,1,1,2.32C130.09,140.85,129.77,141.15,129.18,141.15Z"/>
  <path style="fill:#4370b7;" d="M178.64,143.18a37.15,37.15,0,0,1-1,4,3.64,3.64,0,0,1-3.8,2.39,3.72,3.72,0,0,1-3.78-2.45,10.89,10.89,0,0,1,0-8,3.69,3.69,0,0,1,3.79-2.42,3.62,3.62,0,0,1,3.75,2.34A33.92,33.92,0,0,1,178.64,143.18Z"/>

</svg>