<svg xmlns="http://www.w3.org/2000/svg" viewBox="0 0 295.12 295.11">

  <path style="fill:#f1f2f2; opacity: 0.75" d="M293.62,147.56A146.05,146.05,0,0,1,147.56,293.61c-1.49,0-3,0-4.45-.07A146.05,146.05,0,1,1,293.6,145.31C293.61,146.06,293.62,146.81,293.62,147.56Z"/>
  <path style="fill:#4370b7;" d="M147.56,295.11c-1.61,0-3.08,0-4.5-.07A147.56,147.56,0,0,1,0,147.56C0,66.2,66.2,0,147.56,0A147.57,147.57,0,0,1,295.1,145.29c0,.76,0,1.51,0,2.27C295.12,228.92,228.92,295.11,147.56,295.11ZM147.56,3C67.85,3,3,67.85,3,147.56A144.57,144.57,0,0,0,143.15,292c1.4,0,2.84.07,4.41.07,79.71,0,144.56-64.84,144.56-144.55,0-.74,0-1.49,0-2.23A144.54,144.54,0,0,0,147.56,3Z"/>
  <path style="fill:#4370b7;" d="M153.16,69.08q-42.82,7.58-85.64,15.2c-3.71.66-3.7.7-3.7,4.55V206.24c0,3.85,0,3.89,3.89,4.59l85,15.15c3.53.63,3.72.51,3.72-3V71.9C156.4,68.7,156.23,68.53,153.16,69.08ZM120.61,171A13.9,13.9,0,0,1,110,179.77a26.06,26.06,0,0,1-17.24-2.18,3.24,3.24,0,0,1-2-3.67c.31-3.11.09-6.27.09-10.09l2.93,2.24a15.88,15.88,0,0,0,9.82,3.52c2.71,0,5.26-.75,6.32-3.57s.89-5.79-1.29-8.09a67.78,67.78,0,0,0-5.57-4.67c-3-2.56-6.56-4.74-8.89-7.82a19.92,19.92,0,0,1,1.5-25.31c4.51-4.83,10.63-5.95,16.94-5.28,7.51.79,7.49,1,7.49,8.49v5.9c-3.71-2.32-7.07-3.68-10.9-3.58-4,.11-6.61,1.65-7.67,4.8a8.08,8.08,0,0,0,3.15,9c3,2.21,6.24,4.21,9.3,6.38C123,152.33,123.92,162.81,120.61,171Z"/>
  <path style="fill:#4370b7;" d="M231.3,147.59c0,9.06-6.64,15.76-15.79,15.81a3.16,3.16,0,0,0-3.36,2.13A39.16,39.16,0,0,1,193,185.29c-1.79.86-2,2-2,3.65,0,8.38-5.14,14.54-13.38,15.88a14,14,0,0,1-12-3.85,4.15,4.15,0,0,1-1.14-2.73c-.1-6.05-.13-12.11,0-18.16a4.82,4.82,0,0,1,1.6-3.14c5.81-4.92,13-5,19-.22,1.3,1,2.51,1.4,4,.61a33.11,33.11,0,0,0,15.71-16.76,3.05,3.05,0,0,0-.49-2.52c-5.11-6.46-5.1-14.31,0-20.79a3.23,3.23,0,0,0,.41-2.73,32.16,32.16,0,0,0-15.36-16.47,3.4,3.4,0,0,0-4,.4c-6,4.39-12,4.73-17.71,1.16-2.21-1.38-3.57-3.11-3.32-6,.22-2.56,0-5.16,0-7.74,0-2.88-.15-5.77.08-8.64a5.32,5.32,0,0,1,1.63-3.33c4.82-3.91,10.21-4.88,15.91-2.13s9,7.56,8.93,14.1a4.21,4.21,0,0,0,2.76,4.4c8.53,4.22,14.56,10.92,18.52,19.51a3.16,3.16,0,0,0,3.37,2.11A15.35,15.35,0,0,1,231.3,147.59Z"/>

</svg>