<svg xmlns="http://www.w3.org/2000/svg" viewBox="0 0 4968.45 916">

  <polygon points="0 153.65 0 916 4968.45 916 4968.45 227.27 4816.42 227.27 4816.42 388.51 4714.76 388.51 4714.76 16.94 4532.48 16.94 4532.48 300.88 4318.65 300.88 4318.65 437.59 4167.92 437.59 4167.92 192.21 3989.15 192.21 3989.15 0 3708.71 0 3708.71 490.17 3543.96 490.17 3543.96 153.65 3312.6 153.65 3312.6 381.5 2951.55 381.5 2951.55 300.88 2674.62 300.88 2674.62 486.67 2583.48 486.67 2583.48 34.47 2397.69 34.47 2397.69 220.26 2299.54 220.26 2299.54 381.5 1970.04 381.5 1970.04 528.73 1889.41 528.73 1889.41 87.05 1630.01 87.05 1630.01 437.59 1402.16 437.59 1402.16 297.38 1261.94 297.38 1261.94 115.09 1093.68 115.09 1093.68 181.7 956.97 181.7 956.97 57.2 778.2 57.2 778.2 546.26 630.97 546.26 630.97 251.81 357.55 251.81 357.55 549.76 308.48 549.76 308.48 385.01 175.27 385.01 175.27 157.16 0 153.65"/>

</svg>