<svg xmlns="http://www.w3.org/2000/svg" viewBox="0 0 1555.95 2494.17">
  <rect x="702.9" y="129.19" width="150.15" height="2364.98" rx="46.21"/>
  <path d="M1556,1006.68c0,302.81-245.47,548.29-548.28,548.29A546.09,546.09,0,0,1,778,1504.67,546.09,546.09,0,0,1,548.29,1555C245.48,1555,0,1309.49,0,1006.68,0,838.94,75.33,688.79,194,588.22c0-.83,0-1.67,0-2.5C194,262.24,456.24,0,779.73,0s585.73,262.24,585.73,585.72c0,1.83,0,3.66,0,5.48C1482.1,691.74,1556,840.59,1556,1006.68Z"/>
  <path d="M779.73,0c323.49,0,585.73,262.24,585.73,585.72,0,1.83,0,3.66,0,5.48C1482.1,691.74,1556,840.59,1556,1006.68c0,302.81-245.47,548.29-548.28,548.29A546.09,546.09,0,0,1,778,1504.67"/>
</svg>